<svg version="1.1" id="Layer_1" xmlns="http://www.w3.org/2000/svg" xmlns:xlink="http://www.w3.org/1999/xlink" x="0px" y="0px"
	 width="100%" viewBox="0 0 1024 1024" enable-background="new 0 0 1024 1024" xml:space="preserve">
<path fill="#FFFEFD" opacity="1.000000" stroke="none" 
	d="
M444.000000,1025.000000 
	C296.000000,1025.000000 148.500000,1025.000000 1.000000,1025.000000 
	C1.000000,683.666687 1.000000,342.333344 1.000000,1.000000 
	C342.333344,1.000000 683.666687,1.000000 1025.000000,1.000000 
	C1025.000000,342.333344 1025.000000,683.666687 1025.000000,1025.000000 
	C831.500000,1025.000000 638.000000,1025.000000 444.000000,1025.000000 
M431.415375,318.027313 
	C431.246002,318.341766 431.076630,318.656219 430.985077,318.979309 
	C430.985077,318.979309 430.942444,318.913666 430.397156,319.162109 
	C430.124176,319.681732 429.851196,320.201385 429.649994,321.011017 
	C429.649994,321.011017 429.610870,320.715240 429.095001,321.077972 
	C428.643311,322.012512 428.191589,322.947052 427.852356,323.904785 
	C427.852356,323.904785 427.822205,323.793976 427.262573,324.095490 
	C427.095215,324.703217 426.927826,325.310913 426.874756,325.931580 
	C426.874756,325.931580 426.844696,325.820496 426.227631,326.218781 
	C425.541870,329.146027 424.856140,332.073273 424.021667,335.927246 
	C424.029663,367.286194 424.037628,398.645111 423.838318,430.180664 
	C423.838318,430.180664 423.956909,430.425812 423.443787,430.541412 
	C423.105530,430.612579 422.767242,430.683746 421.923340,430.432709 
	C421.357208,430.514618 420.791077,430.596527 419.387268,430.436707 
	C418.525513,430.506042 417.663727,430.575378 416.004425,430.345215 
	C413.746582,430.450348 411.488770,430.555481 408.310394,430.436279 
	C405.481659,430.511688 402.652924,430.587097 399.299469,430.377655 
	C398.925201,430.471252 398.550934,430.564850 397.253662,430.423431 
	C393.440521,430.492523 389.627350,430.561615 385.012329,430.333740 
	C382.742767,430.433441 380.473236,430.533142 377.282349,430.401672 
	C374.124329,430.482208 370.966278,430.562744 367.049011,430.345703 
	C365.435242,430.443817 363.821442,430.541931 361.271118,430.413757 
	C353.123932,430.477997 344.976715,430.542267 336.197845,430.319031 
	C335.522217,430.405365 334.846619,430.491699 333.381836,430.358002 
	C330.219177,430.876251 327.056549,431.394531 323.999207,431.873749 
	C323.999207,431.873749 323.947205,431.774200 323.203247,431.802338 
	C321.677338,432.517334 320.151428,433.232330 317.954010,433.977234 
	C309.824707,438.734772 304.699615,445.602509 303.036102,455.936035 
	C303.011414,467.391937 302.953217,478.847870 302.968597,490.303741 
	C303.007416,519.190125 303.079346,548.076538 303.013977,577.733887 
	C306.138794,591.433777 314.352570,600.266907 328.842560,604.049011 
	C331.789093,604.316040 334.734467,604.797913 337.682343,604.813904 
	C352.732330,604.895569 367.782928,604.862244 382.833313,604.851440 
	C384.204834,604.850464 385.576263,604.723633 386.947754,604.655273 
	C387.169952,604.282837 387.392151,603.910339 387.614349,603.537903 
	C386.133026,602.323547 384.651733,601.109131 383.107208,599.880493 
	C383.107208,599.880493 383.132721,599.940063 383.031433,599.387329 
	C382.766113,599.160217 382.500793,598.933105 382.232727,598.848999 
	C382.232727,598.848999 382.356628,598.777527 382.257080,598.183655 
	C381.858154,597.764343 381.459229,597.345032 381.005859,596.985352 
	C381.005859,596.985352 381.084412,596.966675 380.985718,596.415100 
	C380.718719,596.186768 380.451691,595.958496 380.156616,595.882446 
	C380.156616,595.882446 380.308197,595.850708 380.187073,595.110229 
	C372.734100,581.554688 372.409760,567.464355 376.991302,553.009399 
	C376.991302,553.009399 377.014618,553.038391 377.489075,552.557861 
	C378.361053,550.714355 379.233002,548.870911 380.027252,547.025635 
	C380.027252,547.025635 380.055908,547.097900 380.613190,546.752441 
	C381.235504,545.631165 381.857819,544.509888 382.362091,543.114075 
	C382.362091,543.114075 382.421936,543.406921 382.941681,543.113098 
	C383.359619,542.435547 383.777557,541.758057 384.068939,541.053467 
	C384.068939,541.053467 384.068054,541.182861 384.645233,540.916199 
	C384.861084,540.550476 385.076935,540.184753 385.877197,539.594849 
	C386.461639,539.004639 387.075104,538.440247 387.626343,537.820435 
	C405.417206,517.817139 443.516724,519.056763 460.689545,543.148560 
	C468.056946,553.484253 470.622711,564.891296 469.732147,577.917297 
	C469.031036,581.214661 468.329895,584.511963 467.901367,587.924072 
	C467.901367,587.924072 467.651520,587.765869 467.120209,588.161865 
	C466.718567,589.432678 466.316895,590.703491 465.988708,591.990479 
	C465.988708,591.990479 465.948242,591.927063 465.402771,592.307068 
	C464.903778,593.525940 464.404755,594.744812 463.988403,595.986145 
	C463.988403,595.986145 463.932861,595.920898 463.361328,596.192017 
	C462.879120,597.116211 462.396912,598.040466 461.993225,598.988403 
	C461.993225,598.988403 461.939392,598.926514 461.391022,599.188721 
	C461.156677,599.736267 460.922333,600.283875 460.808228,600.812195 
	C460.808228,600.812195 460.722565,600.725708 460.179199,600.960327 
	C459.744232,601.607422 459.309265,602.254456 458.970398,602.997681 
	C458.970398,602.997681 458.902222,602.880127 458.341339,603.080444 
	C457.863068,603.693481 457.384827,604.306458 456.997559,604.997559 
	C456.997559,604.997559 456.918976,604.906982 456.351685,605.087585 
	C455.859161,605.688354 455.366608,606.289124 454.930878,606.973389 
	C454.930878,606.973389 454.934967,606.872498 454.385986,606.989441 
	C454.202606,607.293457 454.019226,607.597412 453.927643,607.898621 
	C453.927643,607.898621 453.890137,607.814758 453.262177,607.910950 
	C452.481567,608.586548 451.700958,609.262146 450.985901,609.989197 
	C450.985901,609.989197 450.963593,609.908936 450.339722,610.035034 
	C449.527374,610.661743 448.715027,611.288452 447.979950,611.975403 
	C447.979950,611.975403 447.949127,611.882385 447.212311,611.978760 
	C443.508575,613.565308 439.804840,615.151855 435.873077,616.836121 
	C436.290649,630.944641 439.675720,644.039124 448.845398,655.112488 
	C448.845398,655.112488 448.719757,655.137268 448.912659,655.807556 
	C451.102203,658.357666 453.291748,660.907715 455.574646,663.471191 
	C455.574646,663.471191 455.521118,663.548767 455.790588,664.060669 
	C456.525024,664.702148 457.259491,665.343689 457.996735,666.005493 
	C457.996735,666.005493 458.017303,666.005493 458.312775,666.579712 
	C459.850739,667.760925 461.388702,668.942139 462.962860,670.032288 
	C462.962860,670.032288 462.876404,670.078430 463.145233,670.609253 
	C463.655792,670.896851 464.166351,671.184448 464.650879,671.132385 
	C464.650879,671.132385 464.630127,671.472351 464.996368,671.947083 
	C465.827271,672.472168 466.658142,672.997253 467.593903,673.525391 
	C467.593903,673.525391 467.636444,673.621277 468.058014,674.061218 
	C469.351288,674.770081 470.644531,675.478943 472.266205,676.758972 
	C473.852966,677.469666 475.439728,678.180298 477.457001,679.081177 
	C477.457001,679.081177 477.925354,679.127686 477.974518,679.031372 
	C477.974518,679.031372 477.882996,679.088928 478.340729,679.655396 
	C497.814545,686.570557 516.561584,686.196838 534.056519,674.066406 
	C534.056519,674.066406 534.058044,674.152527 534.599731,674.017883 
	C534.849915,673.769348 535.100098,673.520813 535.186035,673.288574 
	C535.186035,673.288574 535.284912,673.420776 535.935242,673.218994 
	C537.986145,671.495972 540.037048,669.772949 542.013062,668.012939 
	C542.013062,668.012939 542.049561,668.088074 542.622559,667.834656 
	C543.442871,666.904724 544.263245,665.974792 545.011353,665.011230 
	C545.011353,665.011230 545.045593,665.083191 545.562805,664.873657 
	C545.878723,664.431702 546.194580,663.989746 546.509766,663.444031 
	C546.509766,663.444031 546.612671,663.457520 547.103088,663.147705 
	C547.506897,662.486938 547.910706,661.826172 548.147705,661.109985 
	C548.147705,661.109985 548.145691,661.285706 548.696533,661.073242 
	C548.897888,660.738342 549.099243,660.403503 549.877075,659.748535 
	C563.603943,641.975464 567.228027,621.463684 565.859375,599.708557 
	C565.773315,598.339783 563.526184,596.254028 562.002197,595.958862 
	C544.431335,592.555542 529.198242,584.360718 516.782715,571.893005 
	C509.543091,564.622864 504.340668,555.324036 498.071442,546.349060 
	C497.729126,545.879822 497.386780,545.410522 497.000580,544.993713 
	C497.000580,544.993713 497.065460,544.972107 496.953125,544.344299 
	C496.339081,543.517151 495.725037,542.690002 495.073578,541.941345 
	C495.073578,541.941345 495.160339,541.947998 495.083771,541.332581 
	C494.743713,540.857544 494.403687,540.382568 494.024475,539.978760 
	C494.024475,539.978760 494.104828,539.966675 494.025909,539.304077 
	C493.362061,538.187500 492.698212,537.070923 491.996094,535.992493 
	C491.996094,535.992493 492.048279,535.979309 492.000397,535.426575 
	C491.759308,535.179382 491.518188,534.932251 491.245850,534.838806 
	C491.245850,534.838806 491.392456,534.783142 491.289398,534.149536 
	C490.868042,533.426819 490.446686,532.704102 490.000000,532.000000 
	C490.000000,532.000000 490.026245,531.980896 489.994324,531.387268 
	C489.674805,530.907288 489.355286,530.427246 488.997070,529.991394 
	C488.997070,529.991394 489.054962,529.981995 489.023285,529.374451 
	C488.697388,528.893677 488.371490,528.412964 488.006073,527.990356 
	C488.006073,527.990356 488.075653,527.979736 488.034363,527.352600 
	C487.720978,526.856262 487.407562,526.359985 487.063446,525.955017 
	C487.063446,525.955017 487.159607,525.962036 487.079956,525.263367 
	C486.395233,523.833008 485.710510,522.402649 484.998779,520.998657 
	C484.998779,520.998657 485.031830,520.982239 485.010925,520.252136 
	C484.363892,518.974243 483.716888,517.696350 483.181152,516.231689 
	C483.181152,516.231689 483.034882,516.070862 483.028748,515.372253 
	C482.492523,514.169128 481.956329,512.966003 481.398682,511.702667 
	C481.398682,511.702667 481.462555,511.703278 481.361664,511.053253 
	C481.022125,510.294220 480.682556,509.535217 480.394379,508.868103 
	C480.394379,508.868103 480.408081,508.763702 480.322693,508.097443 
	C479.981812,507.319214 479.640930,506.540985 479.288361,505.887543 
	C479.288361,505.887543 479.383301,505.805725 479.276001,505.012054 
	C477.937256,500.932770 476.598541,496.853485 475.265869,492.903412 
	C475.265869,492.903412 475.375916,492.835480 475.261322,492.030670 
	C474.681427,489.803986 474.068207,487.585358 473.526764,485.349365 
	C467.790527,461.659271 463.891663,437.991974 474.503265,414.428650 
	C474.503265,414.428650 474.479919,414.330963 474.938293,414.084656 
	C475.034119,413.749054 475.129944,413.413452 475.796356,412.740723 
	C483.737915,399.288513 495.906067,392.549103 511.479950,390.460663 
	C511.805298,390.193939 512.130676,389.927185 512.476074,389.541901 
	C512.476074,389.541901 512.519897,389.429901 512.972412,389.255646 
	C513.251038,389.051331 513.410156,388.777466 513.294617,388.048920 
	C513.294617,388.048920 513.488586,388.416016 513.979370,388.095947 
	C514.396667,387.430756 514.813965,386.765564 515.089294,386.076996 
	C515.089294,386.076996 515.101990,386.220337 515.623535,386.016327 
	C515.800171,385.694763 515.976746,385.373199 516.043640,385.041199 
	C516.043640,385.041199 516.051819,385.151062 516.560486,384.947815 
	C516.754211,384.647552 516.947937,384.347321 517.040466,384.039429 
	C517.040466,384.039429 517.050232,384.140442 517.561523,383.945221 
	C517.756714,383.645966 517.951965,383.346710 518.040588,383.040649 
	C518.040588,383.040649 518.051514,383.146851 518.570068,382.958099 
	C518.771912,382.660583 518.973755,382.363098 519.071167,382.067230 
	C519.071167,382.067230 519.102295,382.166992 519.754150,381.884277 
	C527.361511,375.665161 535.458496,376.025360 544.147278,380.691498 
	C553.121094,388.512146 555.737305,398.017731 551.471069,407.300964 
	C545.754700,419.739624 530.652466,423.125702 519.088806,414.449799 
	C515.345337,411.641113 511.660187,409.491333 506.278870,411.958832 
	C505.457245,412.217682 504.635620,412.476532 503.964661,412.721161 
	C503.964661,412.721161 503.818024,412.683716 503.120544,412.758301 
	C501.391327,413.819733 499.662109,414.881195 497.993286,415.996338 
	C497.993286,415.996338 497.962372,415.921661 497.426331,416.036835 
	C497.248077,416.340088 497.069794,416.643341 496.974640,416.954865 
	C496.974640,416.954865 496.936676,416.880432 496.326416,417.018433 
	C495.818390,417.630493 495.310333,418.242554 494.910583,418.926422 
	C494.910583,418.926422 494.858856,418.807251 494.228882,418.942963 
	C493.456909,419.949707 492.684906,420.956421 491.993958,421.983643 
	C491.993958,421.983643 491.936829,421.922699 491.361603,422.190613 
	C490.902405,423.119263 490.443207,424.047913 489.996277,424.992920 
	C489.996277,424.992920 489.977417,424.997498 489.468689,425.501831 
	C488.316559,431.631805 485.901337,437.842010 486.284454,443.874481 
	C487.004669,455.214844 488.165466,466.790588 491.288727,477.651459 
	C495.647705,492.809509 501.974670,507.401672 507.356873,522.459167 
	C507.356873,522.459167 507.438171,522.691040 507.615173,523.137207 
	C507.789886,523.408813 507.952362,523.687500 508.172333,524.675781 
	C514.472229,536.758423 521.371033,548.438721 531.234802,558.045898 
	C549.067200,575.414551 570.230469,580.971069 593.866821,573.644836 
	C612.611877,567.834778 624.552490,553.542358 634.368591,536.477112 
	C634.937378,535.325012 635.506165,534.172852 636.004456,533.018555 
	C636.004456,533.018555 636.042480,533.077881 636.574524,532.651733 
	C638.427307,528.782776 640.280090,524.913818 642.050110,521.042664 
	C642.050110,521.042664 642.076599,521.121094 642.640625,520.696106 
	C645.578918,513.216736 648.517212,505.737396 651.399841,498.163055 
	C651.399841,498.163055 651.333679,498.251007 651.877563,497.773224 
	C655.141602,483.305359 658.742859,468.901794 661.517578,454.340698 
	C662.774902,447.742126 662.552673,440.800995 658.004822,435.002167 
	C658.004822,435.002167 658.070251,434.943909 657.830444,434.298523 
	C655.595398,433.165741 653.360352,432.032928 650.538696,430.440399 
	C649.071106,430.505402 647.603577,430.570374 645.202209,430.447113 
	C638.760315,430.507050 632.318420,430.566986 625.016479,430.314453 
	C620.186584,430.459808 615.356750,430.605164 610.029785,430.552917 
	C609.507385,430.617462 608.984985,430.681976 607.726074,430.379547 
	C605.823853,430.243958 603.921692,430.108368 601.996826,429.991852 
	C601.996826,429.991852 602.023621,429.988525 602.058472,429.473022 
	C602.006836,429.308746 601.955200,429.144440 601.994324,428.049225 
	C601.996887,414.620697 602.033142,401.192047 601.993530,387.763641 
	C601.941772,370.198944 601.830078,352.634430 601.762451,334.306488 
	C599.634460,329.511383 597.506470,324.716248 595.114868,319.371155 
	C594.792236,319.165680 594.469666,318.960236 594.194336,318.891785 
	C594.194336,318.891785 594.307739,318.801636 594.206055,318.237854 
	C593.805786,317.843903 593.405579,317.449951 593.015076,316.996979 
	C593.015076,316.996979 592.955566,316.990906 592.727234,316.391235 
	C591.510681,315.543182 590.294189,314.695129 589.056702,313.930145 
	C589.056702,313.930145 589.142029,313.922943 588.996399,313.390991 
	C588.675354,313.234833 588.354370,313.078644 588.011292,312.997498 
	C588.011292,312.997498 588.067749,312.943390 587.789795,312.396088 
	C587.221130,312.196533 586.652405,311.997009 586.075684,311.902802 
	C586.075684,311.902802 586.159912,311.839081 585.829773,311.214294 
	C583.560181,310.433899 581.290527,309.653534 579.025940,308.955231 
	C579.025940,308.955231 579.105469,308.934570 578.679443,308.263245 
	C576.063843,307.842712 573.448975,307.060791 570.832581,307.055939 
	C531.931580,306.983826 493.028564,306.836273 454.131470,307.237427 
	C449.035217,307.289948 443.969299,310.280396 438.965912,311.961304 
	C438.965912,311.961304 438.950562,311.870422 438.394928,311.965942 
	C438.162476,312.230194 437.930023,312.494446 437.832672,312.748993 
	C437.832672,312.748993 437.749420,312.642181 437.135437,312.788818 
	C436.375244,313.487183 435.615051,314.185547 434.981537,314.950836 
	C434.981537,314.950836 434.884491,314.845428 434.311493,315.029968 
	C433.809296,315.637451 433.307098,316.244934 432.893829,316.900574 
	C432.893829,316.900574 432.900879,316.799713 432.367859,316.976776 
	C432.191193,317.296875 432.014526,317.617004 431.944733,317.948547 
	C431.944733,317.948547 431.932922,317.841675 431.415375,318.027313 
M649.005859,390.994080 
	C649.005859,390.994080 649.072876,390.957764 648.943665,390.435913 
	C648.642578,390.266632 648.341553,390.097321 648.025696,390.005219 
	C648.025696,390.005219 648.063965,389.935760 647.854614,389.378784 
	C647.338623,389.119629 646.822693,388.860474 646.208252,388.649170 
	C646.208252,388.649170 646.298767,388.710754 646.084961,388.117889 
	C644.073059,387.460022 642.061218,386.802155 639.251465,385.913055 
	C636.481812,385.658813 633.712097,385.404572 630.329407,385.008911 
	C628.482361,385.591644 626.635376,386.174408 625.022644,386.833588 
	C625.022644,386.833588 624.800537,386.726288 624.148254,386.848572 
	C623.347717,387.846252 622.547180,388.843903 621.850830,389.888245 
	C621.850830,389.888245 621.843750,389.774261 621.309326,389.945618 
	C621.174683,390.285706 621.040100,390.625824 620.987976,390.983002 
	C620.987976,390.983002 620.933044,390.919220 620.353333,391.251709 
	C620.101929,392.096222 619.850586,392.940735 619.654175,393.879456 
	C619.654175,393.879456 619.738037,393.809784 619.136108,394.277313 
	C617.187134,400.911530 618.066223,406.950653 622.927979,412.063232 
	C622.927979,412.063232 622.836182,412.100769 623.062195,412.659973 
	C623.671448,413.165344 624.280762,413.670746 624.927429,414.082184 
	C624.927429,414.082184 624.830872,414.112335 625.145264,414.734772 
	C632.619446,419.747803 637.511047,419.833008 644.672180,414.797699 
	C647.319519,409.244080 651.381958,410.258545 656.097290,411.861084 
	C663.851318,414.496368 669.103394,419.972351 674.042236,426.753784 
	C674.680054,427.862335 675.317810,428.970856 675.996277,430.020264 
	C675.996277,430.020264 675.924683,430.025757 675.996399,430.811188 
	C680.354492,442.186066 679.734924,453.970123 678.349548,465.671753 
	C677.383240,473.834137 675.427368,481.879364 673.986206,489.999207 
	C673.986206,489.999207 673.943909,489.936066 673.386414,490.421356 
	C670.369568,499.946747 667.352722,509.472137 664.016479,519.718018 
	C648.663818,555.853760 628.557617,587.204407 586.132202,596.553528 
	C586.132202,601.394043 586.132202,606.203003 585.984436,611.860535 
	C584.229187,622.542786 582.473877,633.225037 580.842957,643.910095 
	C580.842957,643.910095 580.791016,643.796997 580.223633,644.183289 
	C580.040833,645.080139 579.857971,645.977051 579.810059,646.874512 
	C579.810059,646.874512 579.742676,646.757629 579.207886,647.105103 
	C579.115051,647.730347 579.022278,648.355652 578.997375,648.990051 
	C578.997375,648.990051 578.954651,648.936462 578.447388,649.364929 
	C578.200195,650.209412 577.953003,651.053955 577.845215,651.902954 
	C577.845215,651.902954 577.794006,651.773132 577.253845,652.104553 
	C577.097595,652.713440 576.941345,653.322266 576.205566,654.303040 
	C570.972351,661.938843 566.497742,670.257446 560.359192,677.078491 
	C543.987671,695.270325 523.080383,704.674744 498.595764,704.743225 
	C491.761597,704.762329 484.831360,702.164734 478.097778,700.234924 
	C460.612427,695.223755 446.752716,684.752930 435.035522,670.384644 
	C434.734863,670.179443 434.434204,669.974243 434.142822,669.910278 
	C434.142822,669.910278 434.273163,669.855347 434.176147,669.265869 
	C433.798981,668.827881 433.421844,668.389832 432.997986,667.995422 
	C432.997986,667.995422 433.055542,667.968628 432.952972,667.430664 
	C432.660858,667.237366 432.368774,667.044128 432.078827,666.946960 
	C432.078827,666.946960 432.170319,666.917603 432.059113,666.282654 
	C431.414154,665.476440 430.769196,664.670166 430.048584,663.946289 
	C430.048584,663.946289 430.158051,663.923584 430.037537,663.231262 
	C428.719086,661.124756 427.400604,659.018311 426.022522,656.980469 
	C426.022522,656.980469 426.111816,656.963318 426.073242,656.337830 
	C425.741302,655.856262 425.409363,655.374634 425.040436,654.966187 
	C425.040436,654.966187 425.122375,654.968079 425.049774,654.351074 
	C424.723053,653.870300 424.396332,653.389587 424.030792,652.985352 
	C424.030792,652.985352 424.112823,652.960205 424.045746,652.208862 
	C422.715393,649.115417 421.385040,646.021973 420.012177,642.990234 
	C420.012177,642.990234 420.086273,642.979187 420.079590,642.161804 
	C418.429016,634.274109 416.778473,626.386414 415.019165,617.979004 
	C413.414307,617.596619 411.102173,617.045776 408.356598,616.391663 
	C408.702606,635.210754 412.582886,652.325989 422.065704,668.471191 
	C422.323608,668.669128 422.581482,668.867004 422.978363,669.641968 
	C423.307434,670.116272 423.636475,670.590637 424.002625,671.013977 
	C424.002625,671.013977 423.939819,671.019958 423.879211,671.831482 
	C423.913300,681.461731 423.595856,691.112427 424.152466,700.712402 
	C424.378998,704.618774 426.504303,708.414978 427.779175,712.097473 
	C427.779175,712.097473 427.623169,712.149353 427.733124,712.800476 
	C428.128632,713.299866 428.524139,713.799316 428.996246,714.961914 
	C434.631226,722.976868 441.962585,728.178406 452.954254,728.979736 
	C477.360962,729.063721 501.767670,729.213440 526.174377,729.208801 
	C542.771362,729.205627 559.368286,728.986328 576.730408,728.970520 
	C587.454651,726.308533 595.709412,720.622864 600.295593,709.345642 
	C601.141968,704.147095 602.667664,698.955322 602.719238,693.748901 
	C602.964905,668.924744 602.809753,644.096680 602.798096,619.269958 
	C602.795898,614.652039 602.797791,610.034180 602.797791,604.944641 
	C606.464661,604.944641 609.761841,604.952271 613.059082,604.943359 
	C637.046082,604.878418 661.033081,604.810059 685.669250,604.862000 
	C686.105225,604.819946 686.541260,604.777893 687.835449,604.921631 
	C692.889343,603.924438 697.943176,602.927185 703.689392,601.852600 
	C707.790283,598.570435 711.891113,595.288269 716.475525,591.674988 
	C716.723572,591.151978 716.971619,590.628906 717.117432,590.085388 
	C717.117432,590.085388 717.141357,590.186890 717.701538,589.877441 
	C717.853027,589.262878 718.004517,588.648254 718.059753,588.038086 
	C718.059753,588.038086 718.085815,588.130859 718.672913,587.868591 
	C718.839966,587.259705 719.007019,586.650818 719.069641,586.039856 
	C719.069641,586.039856 719.091980,586.141968 719.671387,585.866089 
	C719.831299,585.254517 719.991211,584.643005 720.056824,584.033447 
	C720.056824,584.033447 720.078918,584.125122 720.743225,583.752869 
	C721.497314,580.382141 722.893372,577.014099 722.907166,573.640320 
	C723.061768,535.705200 723.129272,497.768219 722.830872,459.834747 
	C722.796875,455.504303 720.393066,451.192474 719.058838,446.962616 
	C719.058838,446.962616 719.153687,446.970795 719.052185,446.275330 
	C718.728638,445.704071 718.405090,445.132812 718.034668,443.900909 
	C712.998413,436.412750 706.434265,431.290558 697.098022,430.648895 
	C694.422424,430.465027 693.381409,429.300293 692.555664,426.658905 
	C690.259521,419.313446 686.400391,412.808655 679.949036,407.387726 
	C679.310364,406.922668 678.671631,406.457611 678.012512,405.986542 
	C678.012512,405.986542 677.998413,405.970673 677.638611,405.406860 
	C674.387329,403.582336 671.135986,401.757782 667.729370,399.816162 
	C667.729370,399.816162 667.571960,399.930450 667.130981,399.275024 
	C662.431213,398.135986 657.731506,396.996948 652.885315,395.432922 
	C652.714844,395.161499 652.471497,394.999451 652.002197,394.400909 
	C651.709290,394.195557 651.416382,393.990234 651.116150,393.917206 
	C651.116150,393.917206 651.244019,393.882202 651.162842,393.284821 
	C650.793335,392.845459 650.423889,392.406128 650.004028,391.999390 
	C650.004028,391.999390 650.045593,391.956848 649.936218,391.434967 
	C649.638245,391.265686 649.340210,391.096405 649.005859,390.994080 
M404.989166,592.003296 
	C404.989166,592.003296 404.925934,592.037048 405.226593,592.598022 
	C406.131500,593.120789 407.036438,593.643616 407.944885,594.072693 
	C407.944885,594.072693 407.854279,594.097168 408.226501,594.701843 
	C414.425995,598.128479 420.941345,599.587646 428.717255,597.952393 
	C439.896179,594.758118 446.675903,587.841858 448.680359,576.015198 
	C450.356567,566.125244 445.490082,553.831848 437.457886,547.985291 
	C431.437836,543.603394 411.581787,544.564148 406.062805,549.086426 
	C393.108185,559.701538 391.820801,579.568909 404.116730,591.593933 
	C404.326630,591.882324 404.609314,592.041260 404.989166,592.003296 
z"/>
<path fill="#0D7FB9" opacity="1.000000" stroke="none" 
	d="
M498.221619,546.937988 
	C504.340668,555.324036 509.543091,564.622864 516.782715,571.893005 
	C529.198242,584.360718 544.431335,592.555542 562.002197,595.958862 
	C563.526184,596.254028 565.773315,598.339783 565.859375,599.708557 
	C567.228027,621.463684 563.603943,641.975464 549.301025,660.006104 
	C548.531860,660.604309 548.338745,660.945007 548.145691,661.285706 
	C548.145691,661.285706 548.147705,661.109985 547.888306,661.192627 
	C547.290161,662.002747 546.951416,662.730103 546.612671,663.457520 
	C546.612671,663.457520 546.509766,663.444031 546.179199,663.428528 
	C545.580933,663.969727 545.313232,664.526489 545.045593,665.083191 
	C545.045593,665.083191 545.011353,665.011230 544.694946,665.045837 
	C543.602295,666.083008 542.825928,667.085571 542.049561,668.088074 
	C542.049561,668.088074 542.013062,668.012939 541.695923,668.043945 
	C539.347473,669.856873 537.316223,671.638794 535.284912,673.420776 
	C535.284912,673.420776 535.186035,673.288574 534.975586,673.289795 
	C534.529419,673.578247 534.293762,673.865417 534.058105,674.152527 
	C534.058044,674.152527 534.056519,674.066406 533.711792,674.053345 
	C531.843079,674.618530 530.246826,675.056335 528.806946,675.797852 
	C519.249878,680.719482 509.368256,683.882812 498.405518,682.103760 
	C491.581329,680.996277 484.724945,680.087097 477.882996,679.088867 
	C477.882996,679.088928 477.974518,679.031372 477.907410,678.894897 
	C477.569031,678.802551 477.297760,678.846802 477.026489,678.890991 
	C475.439728,678.180298 473.852966,677.469666 471.997925,676.132812 
	C470.365265,674.878174 469.000854,674.249756 467.636444,673.621277 
	C467.636444,673.621277 467.593903,673.525391 467.609070,673.144043 
	C466.626190,672.332581 465.628174,671.902466 464.630127,671.472351 
	C464.630127,671.472351 464.650879,671.132385 464.642517,670.961426 
	C464.048248,670.553101 463.462341,670.315796 462.876404,670.078430 
	C462.876404,670.078430 462.962860,670.032288 462.929352,669.731018 
	C461.269653,668.288330 459.643463,667.146912 458.017303,666.005493 
	C458.017303,666.005493 457.996735,666.005493 457.962524,665.651917 
	C457.125885,664.715149 456.323486,664.131958 455.521118,663.548767 
	C455.521118,663.548767 455.574646,663.471191 455.608459,663.109009 
	C453.334747,660.210266 451.027252,657.673767 448.719757,655.137268 
	C448.719757,655.137268 448.845398,655.112488 448.864044,654.801514 
	C442.525024,643.041748 436.768585,631.405457 437.721680,618.139465 
	C441.105255,616.069458 444.527191,613.975891 447.949127,611.882385 
	C447.949127,611.882385 447.979950,611.975403 448.278076,611.954712 
	C449.371979,611.258972 450.167786,610.583923 450.963593,609.908936 
	C450.963593,609.908936 450.985901,609.989197 451.291870,609.960876 
	C452.361938,609.226624 453.126038,608.520691 453.890137,607.814697 
	C453.890137,607.814758 453.927643,607.898621 454.143616,607.826843 
	C454.551361,607.460876 454.743164,607.166687 454.934967,606.872498 
	C454.934967,606.872498 454.930878,606.973389 455.243958,606.936523 
	C456.011017,606.235474 456.464966,605.571228 456.918945,604.906982 
	C456.918976,604.906982 456.997559,604.997559 457.292480,604.951416 
	C458.025696,604.230225 458.463959,603.555176 458.902222,602.880127 
	C458.902222,602.880127 458.970398,602.997681 459.275909,602.942627 
	C459.961823,602.166931 460.342194,601.446350 460.722565,600.725708 
	C460.722565,600.725708 460.808228,600.812195 461.061890,600.737488 
	C461.523499,600.084045 461.731445,599.505310 461.939392,598.926514 
	C461.939392,598.926514 461.993225,598.988403 462.269836,598.866333 
	C463.008575,597.803162 463.470703,596.862061 463.932861,595.920898 
	C463.932861,595.920898 463.988403,595.986145 464.278137,595.848511 
	C465.027985,594.449585 465.488098,593.188354 465.948242,591.927063 
	C465.948242,591.927063 465.988708,591.990479 466.289795,591.845215 
	C466.944427,590.388550 467.297974,589.077209 467.651550,587.765869 
	C467.651520,587.765869 467.901367,587.924072 468.122131,587.751587 
	C468.918945,584.145508 469.494965,580.711914 470.070984,577.278259 
	C470.622711,564.891296 468.056946,553.484253 460.689545,543.148560 
	C443.516724,519.056763 405.417206,517.817139 387.626343,537.820435 
	C387.075104,538.440247 386.461639,539.004639 385.307678,539.869629 
	C384.514771,540.490601 384.291412,540.836731 384.068054,541.182861 
	C384.068054,541.182861 384.068939,541.053467 383.808838,541.149536 
	C383.173157,541.966125 382.797546,542.686523 382.421936,543.406921 
	C382.421936,543.406921 382.362091,543.114075 382.039276,543.231567 
	C381.162933,544.598694 380.609436,545.848267 380.055908,547.097900 
	C380.055908,547.097900 380.027252,547.025635 379.735352,547.155273 
	C378.633820,549.202759 377.824249,551.120605 377.014648,553.038391 
	C377.014618,553.038391 376.991302,553.009399 376.678955,553.163818 
	C371.420074,561.737793 372.260345,570.983521 373.710144,579.842468 
	C374.618011,585.389893 378.023407,590.528625 380.308197,595.850708 
	C380.308197,595.850708 380.156616,595.882446 380.205505,596.083618 
	C380.531067,596.512024 380.807739,596.739380 381.084412,596.966675 
	C381.084412,596.966675 381.005859,596.985352 381.038330,597.282593 
	C381.499420,597.979126 381.928040,598.378296 382.356628,598.777527 
	C382.356628,598.777527 382.232727,598.848999 382.252197,599.061462 
	C382.558685,599.495972 382.845703,599.718018 383.132721,599.940063 
	C383.132721,599.940063 383.107208,599.880493 383.111206,600.245239 
	C383.880127,604.059082 381.238190,602.956787 379.753113,602.962646 
	C364.257996,603.023193 348.762390,602.971924 333.267303,603.038757 
	C331.517548,603.046326 329.770050,603.588684 328.021515,603.882996 
	C314.352570,600.266907 306.138794,591.433777 303.347290,577.038025 
	C303.785309,575.525146 303.981323,574.708252 303.981598,573.891174 
	C303.995209,535.522339 303.999481,497.153534 303.956421,458.784760 
	C303.955017,457.524658 303.452545,456.265137 303.183624,455.005341 
	C304.699615,445.602509 309.824707,438.734772 318.683777,433.978088 
	C320.924774,433.244019 322.435974,432.509125 323.947205,431.774200 
	C323.947205,431.774200 323.999207,431.873749 324.421478,431.925720 
	C356.288910,431.982819 387.734161,432.010834 419.179077,431.926392 
	C420.773041,431.922119 422.364380,430.948242 423.956909,430.425842 
	C423.956909,430.425812 423.838318,430.180664 424.235840,429.794281 
	C424.759003,427.594238 424.992279,425.780670 424.994110,423.966858 
	C425.023865,394.309998 425.024384,364.653107 425.304504,334.732971 
	C425.999908,331.586670 426.422302,328.703583 426.844727,325.820496 
	C426.844696,325.820496 426.874756,325.931580 427.128723,325.795837 
	C427.529205,325.038055 427.675720,324.416016 427.822205,323.793976 
	C427.822205,323.793976 427.852356,323.904785 428.146912,323.813660 
	C428.831299,322.720093 429.221100,321.717651 429.610870,320.715240 
	C429.610870,320.715240 429.649994,321.011017 429.946716,320.829926 
	C430.476440,320.070435 430.709442,319.492065 430.942444,318.913666 
	C430.942444,318.913666 430.985077,318.979309 431.195496,318.869568 
	C431.581573,318.453796 431.757263,318.147736 431.932922,317.841675 
	C431.932922,317.841675 431.944733,317.948547 432.155701,317.848633 
	C432.544739,317.432343 432.722809,317.116028 432.900879,316.799713 
	C432.900879,316.799713 432.893829,316.900574 433.201294,316.891052 
	C433.967316,316.202820 434.425903,315.524109 434.884491,314.845428 
	C434.884491,314.845428 434.981537,314.950836 435.269653,314.934784 
	C436.288300,314.159882 437.018860,313.401031 437.749420,312.642181 
	C437.749420,312.642181 437.832672,312.748993 438.051544,312.739197 
	C438.497131,312.443085 438.723846,312.156769 438.950562,311.870422 
	C438.950562,311.870422 438.965912,311.961304 439.322571,311.964905 
	C447.498535,308.239868 455.861389,309.000641 464.134735,308.997040 
	C502.458313,308.980377 540.781860,308.956116 579.105469,308.934570 
	C579.105469,308.934570 579.025940,308.955231 579.197693,309.223358 
	C581.632935,310.274017 583.896423,311.056549 586.159912,311.839081 
	C586.159912,311.839081 586.075684,311.902802 586.198608,312.145874 
	C586.903625,312.573761 587.485718,312.758575 588.067749,312.943390 
	C588.067749,312.943390 588.011292,312.997498 588.121765,313.207336 
	C588.535522,313.585724 588.838745,313.754333 589.142029,313.922943 
	C589.142029,313.922943 589.056702,313.930145 589.157227,314.212677 
	C590.490356,315.327118 591.722961,316.158997 592.955566,316.990906 
	C592.955566,316.990906 593.015076,316.996979 593.036499,317.335876 
	C593.474548,318.050415 593.891113,318.426025 594.307739,318.801636 
	C594.307739,318.801636 594.194336,318.891785 594.257080,319.120514 
	C594.672729,319.539856 595.025635,319.730469 595.378540,319.921082 
	C597.506470,324.716248 599.634460,329.511383 601.509766,335.015503 
	C601.209534,366.894592 601.162109,398.064667 601.231079,429.397614 
	C601.529907,429.770905 601.755249,429.913605 602.023621,429.988525 
	C602.023621,429.988525 601.996826,429.991852 601.980591,430.262817 
	C601.976196,430.721344 601.988037,430.908905 602.308228,431.375671 
	C615.207397,431.770721 627.798096,431.963684 640.388855,431.969238 
	C646.477295,431.971893 652.588440,431.487091 658.070251,434.943909 
	C658.070251,434.943909 658.004822,435.002167 658.011230,435.372803 
	C658.678345,439.622253 659.712585,443.480194 659.930847,447.383759 
	C660.630859,459.902100 658.023499,471.975525 654.586792,483.932953 
	C653.237000,488.629364 652.402710,493.473907 651.333679,498.251007 
	C651.333679,498.251007 651.399841,498.163055 651.057007,498.271423 
	C647.834961,505.960236 644.955750,513.540649 642.076538,521.121094 
	C642.076599,521.121094 642.050110,521.042664 641.759949,521.160767 
	C639.660645,525.211853 637.851562,529.144897 636.042480,533.077881 
	C636.042480,533.077881 636.004456,533.018555 635.738892,533.131653 
	C634.966125,534.488037 634.458862,535.731323 633.951660,536.974548 
	C624.552490,553.542358 612.611877,567.834778 593.866821,573.644836 
	C570.230469,580.971069 549.067200,575.414551 531.234802,558.045898 
	C521.371033,548.438721 514.472229,536.758423 508.360504,524.144165 
	C508.178497,523.305359 507.808350,522.998169 507.438171,522.691040 
	C507.438171,522.691040 507.356873,522.459167 507.564392,521.991821 
	C503.160980,508.015625 498.439606,494.543152 493.966125,480.988892 
	C487.924866,462.684296 485.795319,444.053558 489.977417,424.997498 
	C489.977417,424.997498 489.996277,424.992920 490.296387,424.862976 
	C491.043304,423.796265 491.490051,422.859467 491.936829,421.922699 
	C491.936829,421.922699 491.993958,421.983643 492.261963,421.874023 
	C493.306274,420.778687 494.082550,419.792969 494.858826,418.807251 
	C494.858856,418.807251 494.910583,418.926422 495.167694,418.840881 
	C495.928772,418.130371 496.432709,417.505402 496.936676,416.880432 
	C496.936676,416.880432 496.974640,416.954865 497.184082,416.867035 
	C497.583130,416.493347 497.772736,416.207489 497.962341,415.921661 
	C497.962372,415.921661 497.993286,415.996338 498.321411,415.964691 
	C500.372345,414.849945 502.095184,413.766815 503.818024,412.683716 
	C503.818024,412.683716 503.964661,412.721161 504.227020,412.822144 
	C505.314514,412.664429 506.139648,412.405792 506.964783,412.147156 
	C511.660187,409.491333 515.345337,411.641113 519.088806,414.449799 
	C530.652466,423.125702 545.754700,419.739624 551.471069,407.300964 
	C555.737305,398.017731 553.121094,388.512146 544.185913,380.197754 
	C541.950745,378.564972 539.788147,377.017700 537.382507,376.362793 
	C529.909973,374.328613 522.017395,376.984406 519.102295,382.166992 
	C519.102295,382.166992 519.071167,382.067230 518.860107,382.156006 
	C518.449890,382.545471 518.250732,382.846161 518.051514,383.146851 
	C518.051514,383.146851 518.040588,383.040649 517.838379,383.143188 
	C517.440857,383.543945 517.245544,383.842194 517.050232,384.140442 
	C517.050232,384.140442 517.040466,384.039429 516.836182,384.144379 
	C516.438538,384.549896 516.245178,384.850464 516.051819,385.151062 
	C516.051819,385.151062 516.043640,385.041199 515.835449,385.148743 
	C515.452148,385.577606 515.277039,385.898987 515.101990,386.220337 
	C515.101990,386.220337 515.089294,386.076996 514.831055,386.165253 
	C514.211365,386.974335 513.849976,387.695160 513.488586,388.416016 
	C513.488586,388.416016 513.294617,388.048920 513.056702,388.206512 
	C512.719177,388.719360 512.619507,389.074646 512.519897,389.429901 
	C512.519897,389.429901 512.476074,389.541901 512.220154,389.455444 
	C511.660675,389.759888 511.357147,390.150787 511.053619,390.541687 
	C495.906067,392.549103 483.737915,399.288513 475.244019,413.016052 
	C474.621094,413.637909 474.550507,413.984436 474.479919,414.330963 
	C474.479919,414.330963 474.503265,414.428650 474.138367,414.433990 
	C471.511292,421.921783 468.037567,429.279816 467.253754,436.914062 
	C465.870728,450.384644 466.841339,463.996613 470.114563,477.245239 
	C471.425507,482.551392 473.596436,487.645081 475.375916,492.835480 
	C475.375916,492.835480 475.265869,492.903412 475.175995,493.257538 
	C476.518524,497.676361 477.950897,501.741028 479.383301,505.805725 
	C479.383301,505.805725 479.288361,505.887543 479.193970,506.197144 
	C479.535736,507.259064 479.971893,508.011383 480.408081,508.763702 
	C480.408081,508.763702 480.394379,508.868103 480.251404,509.190247 
	C480.559845,510.242706 481.011200,510.972992 481.462555,511.703278 
	C481.462555,511.703278 481.398682,511.702667 481.266296,512.085083 
	C481.767578,513.668640 482.401245,514.869751 483.034882,516.070862 
	C483.034882,516.070862 483.181152,516.231689 483.112579,516.722290 
	C483.706635,518.469299 484.369232,519.725769 485.031830,520.982239 
	C485.031830,520.982239 484.998779,520.998657 485.009521,521.350037 
	C485.733337,523.121643 486.446472,524.541809 487.159607,525.962036 
	C487.159607,525.962036 487.063446,525.955017 487.066071,526.230591 
	C487.404327,526.997314 487.739990,527.488525 488.075653,527.979736 
	C488.075653,527.979736 488.006073,527.990356 488.033813,528.271973 
	C488.392700,529.029663 488.723816,529.505859 489.054962,529.981995 
	C489.054962,529.981995 488.997070,529.991394 489.027832,530.276245 
	C489.381134,531.034302 489.703705,531.507568 490.026245,531.980896 
	C490.026245,531.980896 490.000000,532.000000 490.008270,532.348267 
	C490.475189,533.392090 490.933807,534.087585 491.392456,534.783142 
	C491.392456,534.783142 491.245850,534.838806 491.255341,535.043518 
	C491.525970,535.491943 491.787140,535.735596 492.048279,535.979309 
	C492.048279,535.979309 491.996094,535.992493 492.006775,536.331177 
	C492.713257,537.768799 493.409027,538.867737 494.104828,539.966675 
	C494.104828,539.966675 494.024475,539.978760 494.046265,540.263062 
	C494.432129,541.014221 494.796234,541.481140 495.160339,541.947998 
	C495.160339,541.947998 495.073578,541.941345 495.072327,542.240662 
	C495.735870,543.350708 496.400665,544.161377 497.065460,544.972107 
	C497.065460,544.972107 497.000580,544.993713 497.033997,545.289185 
	C497.452148,546.035828 497.836884,546.486877 498.221619,546.937988 
z"/>
<path fill="#0E7EB9" opacity="1.000000" stroke="none" 
	d="
M715.992004,592.006104 
	C711.891113,595.288269 707.790283,598.570435 703.086060,601.669617 
	C698.158691,602.009094 693.822998,602.455566 689.520020,603.115356 
	C688.610962,603.254761 687.821716,604.175232 686.977234,604.735840 
	C686.541260,604.777893 686.105225,604.819946 685.323853,604.572021 
	C684.978394,604.282104 684.901001,603.826172 684.595032,603.567322 
	C682.635437,603.217285 680.981873,603.048218 679.328186,603.046692 
	C653.854614,603.023621 628.380981,603.022339 602.525024,603.124573 
	C601.779419,605.083252 601.103882,606.932678 601.099731,608.783630 
	C601.033936,638.356506 601.097290,667.929810 601.004822,697.502563 
	C600.991760,701.673767 600.313049,705.842834 599.942383,710.012878 
	C595.709412,720.622864 587.454651,726.308533 576.038208,728.644592 
	C574.694702,728.218750 574.043518,728.031677 573.392151,728.031433 
	C534.186829,728.016296 494.981445,728.008789 455.776123,728.050293 
	C454.525970,728.051636 453.276337,728.570435 452.026459,728.848022 
	C441.962585,728.178406 434.631226,722.976868 428.956909,714.275269 
	C428.486115,713.108887 428.054626,712.629089 427.623169,712.149353 
	C427.623169,712.149353 427.779175,712.097473 427.818665,711.773804 
	C423.565948,700.281860 425.415985,688.604980 424.965912,677.113831 
	C424.885956,675.072327 424.294861,673.050720 423.939819,671.019958 
	C423.939819,671.019958 424.002625,671.013977 423.949768,670.726685 
	C423.544373,669.981262 423.191864,669.523132 422.839386,669.064941 
	C422.581482,668.867004 422.323608,668.669128 422.311035,668.015137 
	C419.350342,659.117432 415.744049,650.800842 413.058044,642.196899 
	C410.678192,634.573547 409.528503,626.612854 410.236359,618.494812 
	C414.007629,618.505737 414.628540,620.110718 415.149078,623.111389 
	C416.312408,629.817688 418.384399,636.366333 420.086273,642.979187 
	C420.086273,642.979187 420.012177,642.990234 420.015259,643.358398 
	C421.383179,646.804443 422.747986,649.882324 424.112793,652.960205 
	C424.112823,652.960205 424.030792,652.985352 424.047974,653.265015 
	C424.417572,654.019165 424.769958,654.493591 425.122375,654.968079 
	C425.122375,654.968079 425.040436,654.966187 425.050781,655.249268 
	C425.411316,656.009277 425.761566,656.486328 426.111816,656.963318 
	C426.111816,656.963318 426.022522,656.980469 426.023804,657.315979 
	C427.402771,659.742188 428.780426,661.832886 430.158081,663.923584 
	C430.158051,663.923584 430.048584,663.946289 430.061737,664.247437 
	C430.773376,665.338318 431.471832,666.127930 432.170319,666.917603 
	C432.170319,666.917603 432.078827,666.946960 432.151947,667.153503 
	C432.501892,667.562927 432.778717,667.765808 433.055542,667.968628 
	C433.055542,667.968628 432.997986,667.995422 433.031616,668.293640 
	C433.467865,669.013000 433.870514,669.434204 434.273163,669.855347 
	C434.273163,669.855347 434.142822,669.910278 434.213074,670.121826 
	C434.603943,670.529114 434.924591,670.724915 435.245239,670.920715 
	C446.752716,684.752930 460.612427,695.223755 478.097778,700.234924 
	C484.831360,702.164734 491.761597,704.762329 498.595764,704.743225 
	C523.080383,704.674744 543.987671,695.270325 560.359192,677.078491 
	C566.497742,670.257446 570.972351,661.938843 576.799805,653.979004 
	C577.527344,653.027771 577.660706,652.400452 577.794067,651.773132 
	C577.794006,651.773132 577.845215,651.902954 578.108093,651.766846 
	C578.565552,650.732666 578.760132,649.834534 578.954651,648.936462 
	C578.954651,648.936462 578.997375,648.990051 579.244934,648.814880 
	C579.575867,648.012329 579.659241,647.385010 579.742676,646.757629 
	C579.742676,646.757629 579.810059,646.874512 580.088135,646.738159 
	C580.507812,645.666931 580.649414,644.731934 580.791016,643.796997 
	C580.791016,643.796997 580.842957,643.910095 581.126221,643.749756 
	C582.531006,639.822571 584.187500,636.121155 584.657837,632.274658 
	C585.519043,625.232239 585.679565,618.104248 586.132202,611.011902 
	C586.132202,606.203003 586.132202,601.394043 586.132202,596.553528 
	C628.557617,587.204407 648.663818,555.853760 664.503906,519.269043 
	C667.975525,509.192108 670.959717,499.564087 673.943909,489.936066 
	C673.943909,489.936066 673.986206,489.999207 674.267212,489.800903 
	C679.592712,475.205688 681.645630,460.306458 680.651733,445.172638 
	C680.314819,440.042328 677.569397,435.070190 675.924683,430.025757 
	C675.924683,430.025757 675.996277,430.020264 675.980103,429.708435 
	C675.289124,428.300171 674.614258,427.203705 673.939392,426.107269 
	C669.103394,419.972351 663.851318,414.496368 656.097290,411.861084 
	C651.381958,410.258545 647.319519,409.244080 644.141846,414.710388 
	C638.838440,416.500671 634.114746,418.597137 628.983032,415.539032 
	C627.752563,414.805786 626.222900,414.574493 624.830872,414.112335 
	C624.830872,414.112335 624.927429,414.082184 624.907959,413.778137 
	C624.204407,413.016327 623.520264,412.558563 622.836182,412.100769 
	C622.836182,412.100769 622.927979,412.063232 622.919434,411.723145 
	C621.853271,405.525330 620.795654,399.667542 619.738037,393.809784 
	C619.738037,393.809784 619.654175,393.879456 619.980225,393.744568 
	C620.515259,392.712830 620.724121,391.816040 620.933044,390.919220 
	C620.933044,390.919220 620.987976,390.983002 621.199829,390.866486 
	C621.555725,390.424713 621.699707,390.099487 621.843750,389.774261 
	C621.843750,389.774261 621.850830,389.888245 622.132080,389.814453 
	C623.209106,388.735870 624.004822,387.731079 624.800537,386.726288 
	C624.800537,386.726288 625.022644,386.833588 625.278320,386.855072 
	C627.336792,386.301117 629.139648,385.725708 630.942444,385.150330 
	C633.712097,385.404572 636.481812,385.658813 639.876709,386.273193 
	C642.434265,387.325806 644.366516,388.018280 646.298767,388.710754 
	C646.298767,388.710754 646.208252,388.649170 646.282288,388.952759 
	C646.925537,389.482849 647.494751,389.709290 648.063965,389.935760 
	C648.063965,389.935760 648.025696,390.005219 648.121704,390.210480 
	C648.502747,390.596405 648.787781,390.777100 649.072876,390.957764 
	C649.072876,390.957764 649.005859,390.994080 649.109131,391.202148 
	C649.490112,391.592407 649.767883,391.774628 650.045593,391.956848 
	C650.045593,391.956848 650.004028,391.999390 650.034180,392.299255 
	C650.457581,393.026825 650.850830,393.454498 651.244019,393.882202 
	C651.244019,393.882202 651.116150,393.917206 651.188232,394.124115 
	C651.558594,394.536285 651.856995,394.741547 652.155334,394.946808 
	C652.471497,394.999451 652.714844,395.161499 653.144775,395.974182 
	C658.126831,397.653778 662.849365,398.792114 667.571960,399.930450 
	C667.571960,399.930450 667.729370,399.816162 667.971313,400.188904 
	C671.475037,402.364655 674.736694,404.167664 677.998413,405.970673 
	C677.998413,405.970673 678.012512,405.986542 678.054199,406.330627 
	C678.803833,407.093201 679.511780,407.511688 680.219788,407.930176 
	C686.400391,412.808655 690.259521,419.313446 692.555664,426.658905 
	C693.381409,429.300293 694.422424,430.465027 697.098022,430.648895 
	C706.434265,431.290558 712.998413,436.412750 718.051331,444.592896 
	C718.429932,445.846832 718.791809,446.408813 719.153687,446.970795 
	C719.153687,446.970795 719.058838,446.962616 719.045532,447.327148 
	C719.688599,450.920776 720.926514,454.152313 720.913147,457.378662 
	C720.738159,499.627899 720.386292,541.876404 720.078918,584.125122 
	C720.078918,584.125122 720.056824,584.033447 719.817627,584.184509 
	C719.416260,584.937683 719.254089,585.539856 719.091980,586.141968 
	C719.091980,586.141968 719.069641,586.039856 718.832520,586.187622 
	C718.425476,586.933899 718.255676,587.532349 718.085815,588.130859 
	C718.085815,588.130859 718.059753,588.038086 717.816345,588.189819 
	C717.429077,588.956665 717.285217,589.571777 717.141357,590.186890 
	C717.141357,590.186890 717.117432,590.085388 716.900146,590.137512 
	C716.452515,590.795105 716.222229,591.400635 715.992004,592.006104 
z"/>
<path fill="#0E7EB9" opacity="1.000000" stroke="none" 
	d="
M403.933746,591.129578 
	C391.820801,579.568909 393.108185,559.701538 406.062805,549.086426 
	C411.581787,544.564148 431.437836,543.603394 437.457886,547.985291 
	C445.490082,553.831848 450.356567,566.125244 448.680359,576.015198 
	C446.675903,587.841858 439.896179,594.758118 428.039001,597.638184 
	C420.858612,596.248352 414.356445,595.172729 407.854279,594.097168 
	C407.854279,594.097168 407.944885,594.072693 407.842529,593.795776 
	C406.802094,593.024963 405.864014,592.531006 404.925934,592.037048 
	C404.925934,592.037048 404.989166,592.003296 404.980225,591.790466 
	C404.625427,591.428284 404.279572,591.278931 403.933746,591.129578 
z"/>
<path fill="#3186BB" opacity="1.000000" stroke="none" 
	d="
M684.901001,603.826172 
	C684.901001,603.826172 684.978394,604.282104 684.999268,604.512451 
	C661.033081,604.810059 637.046082,604.878418 613.059082,604.943359 
	C609.761841,604.952271 606.464661,604.944641 602.797791,604.944641 
	C602.797791,610.034180 602.795898,614.652039 602.798096,619.269958 
	C602.809753,644.096680 602.964905,668.924744 602.719238,693.748901 
	C602.667664,698.955322 601.141968,704.147095 600.119019,709.679260 
	C600.313049,705.842834 600.991760,701.673767 601.004822,697.502563 
	C601.097290,667.929810 601.033936,638.356506 601.099731,608.783630 
	C601.103882,606.932678 601.779419,605.083252 602.835510,603.415100 
	C630.652588,603.673462 657.776794,603.749817 684.901001,603.826172 
z"/>
<path fill="#0B68AC" opacity="1.000000" stroke="none" 
	d="
M578.892456,308.598907 
	C540.781860,308.956116 502.458313,308.980377 464.134735,308.997040 
	C455.861389,309.000641 447.498535,308.239868 439.284302,311.939270 
	C443.969299,310.280396 449.035217,307.289948 454.131470,307.237427 
	C493.028564,306.836273 531.931580,306.983826 570.832581,307.055939 
	C573.448975,307.060791 576.063843,307.842712 578.892456,308.598907 
z"/>
<path fill="#0B68AC" opacity="1.000000" stroke="none" 
	d="
M720.411072,583.938965 
	C720.386292,541.876404 720.738159,499.627899 720.913147,457.378662 
	C720.926514,454.152313 719.688599,450.920776 719.060181,447.281860 
	C720.393066,451.192474 722.796875,455.504303 722.830872,459.834747 
	C723.129272,497.768219 723.061768,535.705200 722.907166,573.640320 
	C722.893372,577.014099 721.497314,580.382141 720.411072,583.938965 
z"/>
<path fill="#0B68AC" opacity="1.000000" stroke="none" 
	d="
M489.723053,425.249664 
	C485.795319,444.053558 487.924866,462.684296 493.966125,480.988892 
	C498.439606,494.543152 503.160980,508.015625 507.615723,521.880249 
	C501.974670,507.401672 495.647705,492.809509 491.288727,477.651459 
	C488.165466,466.790588 487.004669,455.214844 486.284454,443.874481 
	C485.901337,437.842010 488.316559,431.631805 489.723053,425.249664 
z"/>
<path fill="#015EA3" opacity="1.000000" stroke="none" 
	d="
M423.700348,430.483643 
	C422.364380,430.948242 420.773041,431.922119 419.179077,431.926392 
	C387.734161,432.010834 356.288910,431.982819 324.368835,431.945251 
	C327.056549,431.394531 330.219177,430.876251 333.963745,430.618225 
	C335.306915,430.787781 336.068237,430.697144 336.829529,430.606506 
	C344.976715,430.542267 353.123932,430.477997 362.019592,430.675629 
	C364.448120,430.839447 366.128204,430.741394 367.808258,430.643311 
	C370.966278,430.562744 374.124329,430.482208 378.054962,430.672211 
	C381.156464,430.838715 383.485321,430.734680 385.814209,430.630676 
	C389.627350,430.561615 393.440521,430.492523 397.855591,430.661438 
	C398.913055,430.820435 399.368622,430.741455 399.824188,430.662537 
	C402.652924,430.587097 405.481659,430.511688 409.082947,430.695282 
	C412.170959,430.851105 414.486481,430.747894 416.801971,430.644714 
	C417.663727,430.575378 418.525513,430.506042 420.059418,430.686707 
	C421.297363,430.876099 421.863190,430.815491 422.428986,430.754883 
	C422.767242,430.683746 423.105530,430.612579 423.700348,430.483643 
z"/>
<path fill="#0B68AC" opacity="1.000000" stroke="none" 
	d="
M420.082947,642.570496 
	C418.384399,636.366333 416.312408,629.817688 415.149078,623.111389 
	C414.628540,620.110718 414.007629,618.505737 410.236359,618.494812 
	C409.528503,626.612854 410.678192,634.573547 413.058044,642.196899 
	C415.744049,650.800842 419.350342,659.117432 422.316101,667.760010 
	C412.582886,652.325989 408.702606,635.210754 408.356598,616.391663 
	C411.102173,617.045776 413.414307,617.596619 415.019165,617.979004 
	C416.778473,626.386414 418.429016,634.274109 420.082947,642.570496 
z"/>
<path fill="#004A97" opacity="1.000000" stroke="none" 
	d="
M452.490356,728.913879 
	C453.276337,728.570435 454.525970,728.051636 455.776123,728.050293 
	C494.981445,728.008789 534.186829,728.016296 573.392151,728.031433 
	C574.043518,728.031677 574.694702,728.218750 575.655640,728.591187 
	C559.368286,728.986328 542.771362,729.205627 526.174377,729.208801 
	C501.767670,729.213440 477.360962,729.063721 452.490356,728.913879 
z"/>
<path fill="#004A97" opacity="1.000000" stroke="none" 
	d="
M303.109863,455.470703 
	C303.452545,456.265137 303.955017,457.524658 303.956421,458.784760 
	C303.999481,497.153534 303.995209,535.522339 303.981598,573.891174 
	C303.981323,574.708252 303.785309,575.525146 303.409302,576.652527 
	C303.079346,548.076538 303.007416,519.190125 302.968597,490.303741 
	C302.953217,478.847870 303.011414,467.391937 303.109863,455.470703 
z"/>
<path fill="#0E7EB9" opacity="1.000000" stroke="none" 
	d="
M328.432037,603.966003 
	C329.770050,603.588684 331.517548,603.046326 333.267303,603.038757 
	C348.762390,602.971924 364.257996,603.023193 379.753113,602.962646 
	C381.238190,602.956787 383.880127,604.059082 383.142792,600.252441 
	C384.651733,601.109131 386.133026,602.323547 387.614349,603.537903 
	C387.392151,603.910339 387.169952,604.282837 386.947754,604.655273 
	C385.576263,604.723633 384.204834,604.850464 382.833313,604.851440 
	C367.782928,604.862244 352.732330,604.895569 337.682343,604.813904 
	C334.734467,604.797913 331.789093,604.316040 328.432037,603.966003 
z"/>
<path fill="#0B68AC" opacity="1.000000" stroke="none" 
	d="
M475.318604,492.433075 
	C473.596436,487.645081 471.425507,482.551392 470.114563,477.245239 
	C466.841339,463.996613 465.870728,450.384644 467.253754,436.914062 
	C468.037567,429.279816 471.511292,421.921783 474.143127,414.484009 
	C463.891663,437.991974 467.790527,461.659271 473.526764,485.349365 
	C474.068207,487.585358 474.681427,489.803986 475.318604,492.433075 
z"/>
<path fill="#0B68AC" opacity="1.000000" stroke="none" 
	d="
M651.605591,498.012115 
	C652.402710,493.473907 653.237000,488.629364 654.586792,483.932953 
	C658.023499,471.975525 660.630859,459.902100 659.930847,447.383759 
	C659.712585,443.480194 658.678345,439.622253 658.038086,435.338531 
	C662.552673,440.800995 662.774902,447.742126 661.517578,454.340698 
	C658.742859,468.901794 655.141602,483.305359 651.605591,498.012115 
z"/>
<path fill="#0B68AC" opacity="1.000000" stroke="none" 
	d="
M675.960510,430.418457 
	C677.569397,435.070190 680.314819,440.042328 680.651733,445.172638 
	C681.645630,460.306458 679.592712,475.205688 674.230896,489.789795 
	C675.427368,481.879364 677.383240,473.834137 678.349548,465.671753 
	C679.734924,453.970123 680.354492,442.186066 675.960510,430.418457 
z"/>
<path fill="#015EA3" opacity="1.000000" stroke="none" 
	d="
M425.031494,334.996216 
	C425.024384,364.653107 425.023865,394.309998 424.994110,423.966858 
	C424.992279,425.780670 424.759003,427.594238 424.339478,429.705994 
	C424.037628,398.645111 424.029663,367.286194 424.311310,335.463501 
	C424.600952,334.999725 425.031494,334.996216 425.031494,334.996216 
z"/>
<path fill="#0B68AC" opacity="1.000000" stroke="none" 
	d="
M478.111877,679.372131 
	C484.724945,680.087097 491.581329,680.996277 498.405518,682.103760 
	C509.368256,683.882812 519.249878,680.719482 528.806946,675.797852 
	C530.246826,675.056335 531.843079,674.618530 533.752930,674.065979 
	C516.561584,686.196838 497.814545,686.570557 478.111877,679.372131 
z"/>
<path fill="#015EA3" opacity="1.000000" stroke="none" 
	d="
M601.114685,429.234772 
	C601.162109,398.064667 601.209534,366.894592 601.500549,335.397156 
	C601.830078,352.634430 601.941772,370.198944 601.993530,387.763641 
	C602.033142,401.192047 601.996887,414.620697 601.751343,428.577026 
	C601.508301,429.104828 601.114685,429.234772 601.114685,429.234772 
z"/>
<path fill="#0B68AC" opacity="1.000000" stroke="none" 
	d="
M447.580719,611.930542 
	C444.527191,613.975891 441.105255,616.069458 437.721680,618.139465 
	C436.768585,631.405457 442.525024,643.041748 448.847076,654.863281 
	C439.675720,644.039124 436.290649,630.944641 435.873077,616.836121 
	C439.804840,615.151855 443.508575,613.565308 447.580719,611.930542 
z"/>
<path fill="#0B68AC" opacity="1.000000" stroke="none" 
	d="
M657.950317,434.621216 
	C652.588440,431.487091 646.477295,431.971893 640.388855,431.969238 
	C627.798096,431.963684 615.207397,431.770721 602.766113,431.373596 
	C604.764526,430.977081 606.613586,430.861816 608.462585,430.746521 
	C608.984985,430.681976 609.507385,430.617462 610.773254,430.756256 
	C616.303345,430.848694 621.089905,430.737793 625.876526,430.626953 
	C632.318420,430.566986 638.760315,430.507050 645.987366,430.699982 
	C648.223450,430.935272 649.674377,430.917694 651.125305,430.900116 
	C653.360352,432.032928 655.595398,433.165741 657.950317,434.621216 
z"/>
<path fill="#015EA3" opacity="1.000000" stroke="none" 
	d="
M423.909515,671.425720 
	C424.294861,673.050720 424.885956,675.072327 424.965912,677.113831 
	C425.415985,688.604980 423.565948,700.281860 427.811890,711.855774 
	C426.504303,708.414978 424.378998,704.618774 424.152466,700.712402 
	C423.595856,691.112427 423.913300,681.461731 423.909515,671.425720 
z"/>
<path fill="#0B68AC" opacity="1.000000" stroke="none" 
	d="
M380.247620,595.480469 
	C378.023407,590.528625 374.618011,585.389893 373.710144,579.842468 
	C372.260345,570.983521 371.420074,561.737793 376.697266,553.160767 
	C372.409760,567.464355 372.734100,581.554688 380.247620,595.480469 
z"/>
<path fill="#0B68AC" opacity="1.000000" stroke="none" 
	d="
M586.058350,611.436218 
	C585.679565,618.104248 585.519043,625.232239 584.657837,632.274658 
	C584.187500,636.121155 582.531006,639.822571 581.063965,643.748352 
	C582.473877,633.225037 584.229187,622.542786 586.058350,611.436218 
z"/>
<path fill="#0B68AC" opacity="1.000000" stroke="none" 
	d="
M673.665161,490.178711 
	C670.959717,499.564087 667.975525,509.192108 664.663574,518.908813 
	C667.352722,509.472137 670.369568,499.946747 673.665161,490.178711 
z"/>
<path fill="#0B68AC" opacity="1.000000" stroke="none" 
	d="
M519.428223,382.025635 
	C522.017395,376.984406 529.909973,374.328613 537.382507,376.362793 
	C539.788147,377.017700 541.950745,378.564972 544.027954,379.898285 
	C535.458496,376.025360 527.361511,375.665161 519.428223,382.025635 
z"/>
<path fill="#0B68AC" opacity="1.000000" stroke="none" 
	d="
M642.358582,520.908569 
	C644.955750,513.540649 647.834961,505.960236 651.084839,498.318909 
	C648.517212,505.737396 645.578918,513.216736 642.358582,520.908569 
z"/>
<path fill="#0B68AC" opacity="1.000000" stroke="none" 
	d="
M624.988037,414.423553 
	C626.222900,414.574493 627.752563,414.805786 628.983032,415.539032 
	C634.114746,418.597137 638.838440,416.500671 643.821045,414.843445 
	C637.511047,419.833008 632.619446,419.747803 624.988037,414.423553 
z"/>
<path fill="#0B68AC" opacity="1.000000" stroke="none" 
	d="
M408.040405,594.399536 
	C414.356445,595.172729 420.858612,596.248352 427.663696,597.597412 
	C420.941345,599.587646 414.425995,598.128479 408.040405,594.399536 
z"/>
<path fill="#0B68AC" opacity="1.000000" stroke="none" 
	d="
M619.437073,394.043549 
	C620.795654,399.667542 621.853271,405.525330 622.904663,411.770508 
	C618.066223,406.950653 617.187134,400.911530 619.437073,394.043549 
z"/>
<path fill="#3186BB" opacity="1.000000" stroke="none" 
	d="
M687.406372,604.828735 
	C687.821716,604.175232 688.610962,603.254761 689.520020,603.115356 
	C693.822998,602.455566 698.158691,602.009094 702.739868,601.708313 
	C697.943176,602.927185 692.889343,603.924438 687.406372,604.828735 
z"/>
<path fill="#0B68AC" opacity="1.000000" stroke="none" 
	d="
M636.308472,532.864807 
	C637.851562,529.144897 639.660645,525.211853 641.801270,521.161865 
	C640.280090,524.913818 638.427307,528.782776 636.308472,532.864807 
z"/>
<path fill="#0B68AC" opacity="1.000000" stroke="none" 
	d="
M667.351440,399.602722 
	C662.849365,398.792114 658.126831,397.653778 653.218018,396.186676 
	C657.731506,396.996948 662.431213,398.135986 667.351440,399.602722 
z"/>
<path fill="#0B68AC" opacity="1.000000" stroke="none" 
	d="
M479.329651,505.408875 
	C477.950897,501.741028 476.518524,497.676361 475.172974,493.192932 
	C476.598541,496.853485 477.937256,500.932770 479.329651,505.408875 
z"/>
<path fill="#0B68AC" opacity="1.000000" stroke="none" 
	d="
M424.079285,652.584534 
	C422.747986,649.882324 421.383179,646.804443 420.036499,643.327515 
	C421.385040,646.021973 422.715393,649.115417 424.079285,652.584534 
z"/>
<path fill="#0B68AC" opacity="1.000000" stroke="none" 
	d="
M469.901550,577.597778 
	C469.494965,580.711914 468.918945,584.145508 467.985840,587.694214 
	C468.329895,584.511963 469.031036,581.214661 469.901550,577.597778 
z"/>
<path fill="#3186BB" opacity="1.000000" stroke="none" 
	d="
M625.446533,430.470703 
	C621.089905,430.737793 616.303345,430.848694 611.021790,430.855042 
	C615.356750,430.605164 620.186584,430.459808 625.446533,430.470703 
z"/>
<path fill="#0B68AC" opacity="1.000000" stroke="none" 
	d="
M677.818481,405.688782 
	C674.736694,404.167664 671.475037,402.364655 668.049011,400.247437 
	C671.135986,401.757782 674.387329,403.582336 677.818481,405.688782 
z"/>
<path fill="#0B68AC" opacity="1.000000" stroke="none" 
	d="
M425.304504,334.732971 
	C425.031494,334.996216 424.600952,334.999725 424.385681,335.000122 
	C424.856140,332.073273 425.541870,329.146027 426.536194,326.019653 
	C426.422302,328.703583 425.999908,331.586670 425.304504,334.732971 
z"/>
<path fill="#0B68AC" opacity="1.000000" stroke="none" 
	d="
M448.816223,655.472412 
	C451.027252,657.673767 453.334747,660.210266 455.561768,663.102295 
	C453.291748,660.907715 451.102203,658.357666 448.816223,655.472412 
z"/>
<path fill="#0B68AC" opacity="1.000000" stroke="none" 
	d="
M535.610107,673.319885 
	C537.316223,671.638794 539.347473,669.856873 541.733398,668.062378 
	C540.037048,669.772949 537.986145,671.495972 535.610107,673.319885 
z"/>
<path fill="#0B68AC" opacity="1.000000" stroke="none" 
	d="
M585.994873,311.526672 
	C583.896423,311.056549 581.632935,310.274017 579.195190,309.182312 
	C581.290527,309.653534 583.560181,310.433899 585.994873,311.526672 
z"/>
<path fill="#0B68AC" opacity="1.000000" stroke="none" 
	d="
M430.097809,663.577393 
	C428.780426,661.832886 427.402771,659.742188 426.053619,657.281616 
	C427.400604,659.018311 428.719086,661.124756 430.097809,663.577393 
z"/>
<path fill="#0B68AC" opacity="1.000000" stroke="none" 
	d="
M646.191895,388.414307 
	C644.366516,388.018280 642.434265,387.325806 640.275635,386.388794 
	C642.061218,386.802155 644.073059,387.460022 646.191895,388.414307 
z"/>
<path fill="#0B68AC" opacity="1.000000" stroke="none" 
	d="
M503.469299,412.721008 
	C502.095184,413.766815 500.372345,414.849945 498.291199,415.937866 
	C499.662109,414.881195 501.391327,413.819733 503.469299,412.721008 
z"/>
<path fill="#0B68AC" opacity="1.000000" stroke="none" 
	d="
M630.635925,385.079590 
	C629.139648,385.725708 627.336792,386.301117 625.161133,386.816864 
	C626.635376,386.174408 628.482361,385.591644 630.635925,385.079590 
z"/>
<path fill="#0B68AC" opacity="1.000000" stroke="none" 
	d="
M458.165039,666.292603 
	C459.643463,667.146912 461.269653,668.288330 462.911255,669.776550 
	C461.388702,668.942139 459.850739,667.760925 458.165039,666.292603 
z"/>
<path fill="#0D7FB9" opacity="1.000000" stroke="none" 
	d="
M416.403198,430.494965 
	C414.486481,430.747894 412.170959,430.851105 409.543213,430.807434 
	C411.488770,430.555481 413.746582,430.450348 416.403198,430.494965 
z"/>
<path fill="#0D7FB9" opacity="1.000000" stroke="none" 
	d="
M385.413269,430.482178 
	C383.485321,430.734680 381.156464,430.838715 378.515625,430.787781 
	C380.473236,430.533142 382.742767,430.433441 385.413269,430.482178 
z"/>
<path fill="#0B68AC" opacity="1.000000" stroke="none" 
	d="
M377.251862,552.798096 
	C377.824249,551.120605 378.633820,549.202759 379.774170,547.156128 
	C379.233002,548.870911 378.361053,550.714355 377.251862,552.798096 
z"/>
<path fill="#0B68AC" opacity="1.000000" stroke="none" 
	d="
M634.160156,536.725830 
	C634.458862,535.731323 634.966125,534.488037 635.774170,533.132751 
	C635.506165,534.172852 634.937378,535.325012 634.160156,536.725830 
z"/>
<path fill="#0B68AC" opacity="1.000000" stroke="none" 
	d="
M467.847229,673.841248 
	C469.000854,674.249756 470.365265,674.878174 471.833740,675.847229 
	C470.644531,675.478943 469.351288,674.770081 467.847229,673.841248 
z"/>
<path fill="#0B68AC" opacity="1.000000" stroke="none" 
	d="
M483.031799,515.721558 
	C482.401245,514.869751 481.767578,513.668640 481.277039,512.115173 
	C481.956329,512.966003 482.492523,514.169128 483.031799,515.721558 
z"/>
<path fill="#0B68AC" opacity="1.000000" stroke="none" 
	d="
M592.841431,316.691071 
	C591.722961,316.158997 590.490356,315.327118 589.167725,314.171143 
	C590.294189,314.695129 591.510681,315.543182 592.841431,316.691071 
z"/>
<path fill="#0B68AC" opacity="1.000000" stroke="none" 
	d="
M487.119781,525.612671 
	C486.446472,524.541809 485.733337,523.121643 485.023010,521.336853 
	C485.710510,522.402649 486.395233,523.833008 487.119781,525.612671 
z"/>
<path fill="#015EA3" opacity="1.000000" stroke="none" 
	d="
M323.575226,431.788269 
	C322.435974,432.509125 320.924774,433.244019 319.019531,433.963135 
	C320.151428,433.232330 321.677338,432.517334 323.575226,431.788269 
z"/>
<path fill="#3186BB" opacity="1.000000" stroke="none" 
	d="
M608.094360,430.563049 
	C606.613586,430.861816 604.764526,430.977081 602.457642,431.094391 
	C601.988037,430.908905 601.976196,430.721344 601.991943,430.253296 
	C603.921692,430.108368 605.823853,430.243958 608.094360,430.563049 
z"/>
<path fill="#0B68AC" opacity="1.000000" stroke="none" 
	d="
M467.385864,587.963867 
	C467.297974,589.077209 466.944427,590.388550 466.253052,591.837097 
	C466.316895,590.703491 466.718567,589.432678 467.385864,587.963867 
z"/>
<path fill="#0B68AC" opacity="1.000000" stroke="none" 
	d="
M380.334534,546.925171 
	C380.609436,545.848267 381.162933,544.598694 382.098267,543.368896 
	C381.857819,544.509888 381.235504,545.631165 380.334534,546.925171 
z"/>
<path fill="#0D7FB9" opacity="1.000000" stroke="none" 
	d="
M367.428650,430.494507 
	C366.128204,430.741394 364.448120,430.839447 362.487854,430.788757 
	C363.821442,430.541931 365.435242,430.443817 367.428650,430.494507 
z"/>
<path fill="#0B68AC" opacity="1.000000" stroke="none" 
	d="
M673.990845,426.430542 
	C674.614258,427.203705 675.289124,428.300171 675.959778,429.738037 
	C675.317810,428.970856 674.680054,427.862335 673.990845,426.430542 
z"/>
<path fill="#0B68AC" opacity="1.000000" stroke="none" 
	d="
M542.336060,667.961365 
	C542.825928,667.085571 543.602295,666.083008 544.731079,665.062683 
	C544.263245,665.974792 543.442871,666.904724 542.336060,667.961365 
z"/>
<path fill="#0B68AC" opacity="1.000000" stroke="none" 
	d="
M494.065369,539.635376 
	C493.409027,538.867737 492.713257,537.768799 492.025879,536.312134 
	C492.698212,537.070923 493.362061,538.187500 494.065369,539.635376 
z"/>
<path fill="#0B68AC" opacity="1.000000" stroke="none" 
	d="
M624.474365,386.787415 
	C624.004822,387.731079 623.209106,388.735870 622.080017,389.791107 
	C622.547180,388.843903 623.347717,387.846252 624.474365,386.787415 
z"/>
<path fill="#3186BB" opacity="1.000000" stroke="none" 
	d="
M650.832031,430.670258 
	C649.674377,430.917694 648.223450,430.935272 646.454224,430.794128 
	C647.603577,430.570374 649.071106,430.505402 650.832031,430.670258 
z"/>
<path fill="#0B68AC" opacity="1.000000" stroke="none" 
	d="
M485.021362,520.617188 
	C484.369232,519.725769 483.706635,518.469299 483.056946,516.815674 
	C483.716888,517.696350 484.363892,518.974243 485.021362,520.617188 
z"/>
<path fill="#0B68AC" opacity="1.000000" stroke="none" 
	d="
M465.675476,592.117065 
	C465.488098,593.188354 465.027985,594.449585 464.236816,595.837280 
	C464.404755,594.744812 464.903778,593.525940 465.675476,592.117065 
z"/>
<path fill="#0B68AC" opacity="1.000000" stroke="none" 
	d="
M494.543854,418.875122 
	C494.082550,419.792969 493.306274,420.778687 492.221436,421.863770 
	C492.684906,420.956421 493.456909,419.949707 494.543854,418.875122 
z"/>
<path fill="#0B68AC" opacity="1.000000" stroke="none" 
	d="
M464.813232,671.709717 
	C465.628174,671.902466 466.626190,672.332581 467.556641,673.142578 
	C466.658142,672.997253 465.827271,672.472168 464.813232,671.709717 
z"/>
<path fill="#0B68AC" opacity="1.000000" stroke="none" 
	d="
M453.576141,607.862793 
	C453.126038,608.520691 452.361938,609.226624 451.259125,609.935181 
	C451.700958,609.262146 452.481567,608.586548 453.576141,607.862793 
z"/>
<path fill="#0B68AC" opacity="1.000000" stroke="none" 
	d="
M437.442444,312.715515 
	C437.018860,313.401031 436.288300,314.159882 435.206299,314.901306 
	C435.615051,314.185547 436.375244,313.487183 437.442444,312.715515 
z"/>
<path fill="#0B68AC" opacity="1.000000" stroke="none" 
	d="
M463.647095,596.056458 
	C463.470703,596.862061 463.008575,597.803162 462.230591,598.854492 
	C462.396912,598.040466 462.879120,597.116211 463.647095,596.056458 
z"/>
<path fill="#0B68AC" opacity="1.000000" stroke="none" 
	d="
M450.651672,609.971985 
	C450.167786,610.583923 449.371979,611.258972 448.239441,611.924561 
	C448.715027,611.288452 449.527374,610.661743 450.651672,609.971985 
z"/>
<path fill="#0B68AC" opacity="1.000000" stroke="none" 
	d="
M405.076263,592.317505 
	C405.864014,592.531006 406.802094,593.024963 407.840790,593.842651 
	C407.036438,593.643616 406.131500,593.120789 405.076263,592.317505 
z"/>
<path fill="#0B68AC" opacity="1.000000" stroke="none" 
	d="
M497.009277,544.658203 
	C496.400665,544.161377 495.735870,543.350708 495.091064,542.201416 
	C495.725037,542.690002 496.339081,543.517151 497.009277,544.658203 
z"/>
<path fill="#0B68AC" opacity="1.000000" stroke="none" 
	d="
M460.450867,600.843018 
	C460.342194,601.446350 459.961823,602.166931 459.227844,602.894531 
	C459.309265,602.254456 459.744232,601.607422 460.450867,600.843018 
z"/>
<path fill="#0B68AC" opacity="1.000000" stroke="none" 
	d="
M429.352936,320.896606 
	C429.221100,321.717651 428.831299,322.720093 428.090698,323.802063 
	C428.191589,322.947052 428.643311,322.012512 429.352936,320.896606 
z"/>
<path fill="#0B68AC" opacity="1.000000" stroke="none" 
	d="
M432.114716,666.600098 
	C431.471832,666.127930 430.773376,665.338318 430.099548,664.206299 
	C430.769196,664.670166 431.414154,665.476440 432.114716,666.600098 
z"/>
<path fill="#0B68AC" opacity="1.000000" stroke="none" 
	d="
M455.655823,663.804688 
	C456.323486,664.131958 457.125885,664.715149 457.961121,665.641785 
	C457.259491,665.343689 456.525024,664.702148 455.655823,663.804688 
z"/>
<path fill="#0B68AC" opacity="1.000000" stroke="none" 
	d="
M491.649200,422.056641 
	C491.490051,422.859467 491.043304,423.796265 490.290283,424.854797 
	C490.443207,424.047913 490.902405,423.119263 491.649200,422.056641 
z"/>
<path fill="#0B68AC" opacity="1.000000" stroke="none" 
	d="
M622.949219,412.380371 
	C623.520264,412.558563 624.204407,413.016327 624.889282,413.825134 
	C624.280762,413.670746 623.671448,413.165344 622.949219,412.380371 
z"/>
<path fill="#0B68AC" opacity="1.000000" stroke="none" 
	d="
M480.365387,508.430573 
	C479.971893,508.011383 479.535736,507.259064 479.199829,506.134766 
	C479.640930,506.540985 479.981812,507.319214 480.365387,508.430573 
z"/>
<path fill="#0B68AC" opacity="1.000000" stroke="none" 
	d="
M716.233765,591.840576 
	C716.222229,591.400635 716.452515,590.795105 716.951294,590.147705 
	C716.971619,590.628906 716.723572,591.151978 716.233765,591.840576 
z"/>
<path fill="#0B68AC" opacity="1.000000" stroke="none" 
	d="
M513.734009,388.255981 
	C513.849976,387.695160 514.211365,386.974335 514.902039,386.176941 
	C514.813965,386.765564 514.396667,387.430756 513.734009,388.255981 
z"/>
<path fill="#0B68AC" opacity="1.000000" stroke="none" 
	d="
M458.621796,602.980286 
	C458.463959,603.555176 458.025696,604.230225 457.247009,604.912354 
	C457.384827,604.306458 457.863068,603.693481 458.621796,602.980286 
z"/>
<path fill="#0B68AC" opacity="1.000000" stroke="none" 
	d="
M620.643188,391.085449 
	C620.724121,391.816040 620.515259,392.712830 619.952759,393.697449 
	C619.850586,392.940735 620.101929,392.096222 620.643188,391.085449 
z"/>
<path fill="#0B68AC" opacity="1.000000" stroke="none" 
	d="
M546.857910,663.302612 
	C546.951416,662.730103 547.290161,662.002747 547.971680,661.220337 
	C547.910706,661.826172 547.506897,662.486938 546.857910,663.302612 
z"/>
<path fill="#0B68AC" opacity="1.000000" stroke="none" 
	d="
M680.084412,407.658936 
	C679.511780,407.511688 678.803833,407.093201 678.064453,406.333618 
	C678.671631,406.457611 679.310364,406.922668 680.084412,407.658936 
z"/>
<path fill="#0B68AC" opacity="1.000000" stroke="none" 
	d="
M506.621826,412.052979 
	C506.139648,412.405792 505.314514,412.664429 504.151672,412.829224 
	C504.635620,412.476532 505.457245,412.217682 506.621826,412.052979 
z"/>
<path fill="#0B68AC" opacity="1.000000" stroke="none" 
	d="
M382.681824,543.260010 
	C382.797546,542.686523 383.173157,541.966125 383.872131,541.163086 
	C383.777557,541.758057 383.359619,542.435547 382.681824,543.260010 
z"/>
<path fill="#0B68AC" opacity="1.000000" stroke="none" 
	d="
M496.631531,416.949432 
	C496.432709,417.505402 495.928772,418.130371 495.113525,418.804993 
	C495.310333,418.242554 495.818390,417.630493 496.631531,416.949432 
z"/>
<path fill="#0B68AC" opacity="1.000000" stroke="none" 
	d="
M481.412109,511.378265 
	C481.011200,510.972992 480.559845,510.242706 480.225739,509.144287 
	C480.682556,509.535217 481.022125,510.294220 481.412109,511.378265 
z"/>
<path fill="#0B68AC" opacity="1.000000" stroke="none" 
	d="
M578.701050,649.150696 
	C578.760132,649.834534 578.565552,650.732666 578.038330,651.764587 
	C577.953003,651.053955 578.200195,650.209412 578.701050,649.150696 
z"/>
<path fill="#0B68AC" opacity="1.000000" stroke="none" 
	d="
M580.507324,643.990112 
	C580.649414,644.731934 580.507812,645.666931 580.020630,646.737915 
	C579.857971,645.977051 580.040833,645.080139 580.507324,643.990112 
z"/>
<path fill="#0B68AC" opacity="1.000000" stroke="none" 
	d="
M434.597992,314.937683 
	C434.425903,315.524109 433.967316,316.202820 433.156799,316.866943 
	C433.307098,316.244934 433.809296,315.637451 434.597992,314.937683 
z"/>
<path fill="#0D7FB9" opacity="1.000000" stroke="none" 
	d="
M336.513672,430.462769 
	C336.068237,430.697144 335.306915,430.787781 334.358307,430.728210 
	C334.846619,430.491699 335.522217,430.405365 336.513672,430.462769 
z"/>
<path fill="#0B68AC" opacity="1.000000" stroke="none" 
	d="
M491.340942,534.466309 
	C490.933807,534.087585 490.475189,533.392090 490.020935,532.338989 
	C490.446686,532.704102 490.868042,533.426819 491.340942,534.466309 
z"/>
<path fill="#0B68AC" opacity="1.000000" stroke="none" 
	d="
M456.635315,604.997314 
	C456.464966,605.571228 456.011017,606.235474 455.215546,606.894775 
	C455.366608,606.289124 455.859161,605.688354 456.635315,604.997314 
z"/>
<path fill="#0B68AC" opacity="1.000000" stroke="none" 
	d="
M587.928772,312.669739 
	C587.485718,312.758575 586.903625,312.573761 586.202637,312.093201 
	C586.652405,311.997009 587.221130,312.196533 587.928772,312.669739 
z"/>
<path fill="#0B68AC" opacity="1.000000" stroke="none" 
	d="
M545.304199,664.978394 
	C545.313232,664.526489 545.580933,663.969727 546.179504,663.480408 
	C546.194580,663.989746 545.878723,664.431702 545.304199,664.978394 
z"/>
<path fill="#0B68AC" opacity="1.000000" stroke="none" 
	d="
M577.523926,651.938843 
	C577.660706,652.400452 577.527344,653.027771 577.089539,653.793091 
	C576.941345,653.322266 577.097595,652.713440 577.523926,651.938843 
z"/>
<path fill="#0B68AC" opacity="1.000000" stroke="none" 
	d="
M425.086060,654.659546 
	C424.769958,654.493591 424.417572,654.019165 424.067383,653.226746 
	C424.396332,653.389587 424.723053,653.870300 425.086060,654.659546 
z"/>
<path fill="#0B68AC" opacity="1.000000" stroke="none" 
	d="
M434.224670,669.560608 
	C433.870514,669.434204 433.467865,669.013000 433.054962,668.271851 
	C433.421844,668.389832 433.798981,668.827881 434.224670,669.560608 
z"/>
<path fill="#0B68AC" opacity="1.000000" stroke="none" 
	d="
M426.092529,656.650574 
	C425.761566,656.486328 425.411316,656.009277 425.069275,655.212646 
	C425.409363,655.374634 425.741302,655.856262 426.092529,656.650574 
z"/>
<path fill="#015EA3" opacity="1.000000" stroke="none" 
	d="
M422.908875,669.353455 
	C423.191864,669.523132 423.544373,669.981262 423.931213,670.752197 
	C423.636475,670.590637 423.307434,670.116272 422.908875,669.353455 
z"/>
<path fill="#0B68AC" opacity="1.000000" stroke="none" 
	d="
M579.475220,646.931396 
	C579.659241,647.385010 579.575867,648.012329 579.210999,648.810303 
	C579.022278,648.355652 579.115051,647.730347 579.475220,646.931396 
z"/>
<path fill="#0B68AC" opacity="1.000000" stroke="none" 
	d="
M463.010803,670.343872 
	C463.462341,670.315796 464.048248,670.553101 464.655548,671.131226 
	C464.166351,671.184448 463.655792,670.896851 463.010803,670.343872 
z"/>
<path fill="#015EA3" opacity="1.000000" stroke="none" 
	d="
M427.678162,712.474915 
	C428.054626,712.629089 428.486115,713.108887 428.918610,713.943726 
	C428.524139,713.799316 428.128632,713.299866 427.678162,712.474915 
z"/>
<path fill="#0B68AC" opacity="1.000000" stroke="none" 
	d="
M461.665222,599.057617 
	C461.731445,599.505310 461.523499,600.084045 461.001770,600.747131 
	C460.922333,600.283875 461.156677,599.736267 461.665222,599.057617 
z"/>
<path fill="#0B68AC" opacity="1.000000" stroke="none" 
	d="
M489.039124,529.678223 
	C488.723816,529.505859 488.392700,529.029663 488.053589,528.242859 
	C488.371490,528.412964 488.697388,528.893677 489.039124,529.678223 
z"/>
<path fill="#0B68AC" opacity="1.000000" stroke="none" 
	d="
M430.669800,319.037903 
	C430.709442,319.492065 430.476440,320.070435 429.910828,320.684937 
	C429.851196,320.201385 430.124176,319.681732 430.669800,319.037903 
z"/>
<path fill="#0B68AC" opacity="1.000000" stroke="none" 
	d="
M647.959290,389.657288 
	C647.494751,389.709290 646.925537,389.482849 646.331543,388.928833 
	C646.822693,388.860474 647.338623,389.119629 647.959290,389.657288 
z"/>
<path fill="#0B68AC" opacity="1.000000" stroke="none" 
	d="
M651.203430,393.583496 
	C650.850830,393.454498 650.457581,393.026825 650.059326,392.282959 
	C650.423889,392.406128 650.793335,392.845459 651.203430,393.583496 
z"/>
<path fill="#0B68AC" opacity="1.000000" stroke="none" 
	d="
M511.266785,390.501160 
	C511.357147,390.150787 511.660675,389.759888 512.210083,389.514740 
	C512.130676,389.927185 511.805298,390.193939 511.266785,390.501160 
z"/>
<path fill="#0B68AC" opacity="1.000000" stroke="none" 
	d="
M594.256897,318.519745 
	C593.891113,318.426025 593.474548,318.050415 593.031616,317.365417 
	C593.405579,317.449951 593.805786,317.843903 594.256897,318.519745 
z"/>
<path fill="#0B68AC" opacity="1.000000" stroke="none" 
	d="
M382.306854,598.480591 
	C381.928040,598.378296 381.499420,597.979126 381.065552,597.252808 
	C381.459229,597.345032 381.858154,597.764343 382.306854,598.480591 
z"/>
<path fill="#0D7FB9" opacity="1.000000" stroke="none" 
	d="
M399.561829,430.520081 
	C399.368622,430.741455 398.913055,430.820435 398.317078,430.778931 
	C398.550934,430.564850 398.925201,430.471252 399.561829,430.520081 
z"/>
<path fill="#0D7FB9" opacity="1.000000" stroke="none" 
	d="
M422.176147,430.593811 
	C421.863190,430.815491 421.297363,430.876099 420.478271,430.807556 
	C420.791077,430.596527 421.357208,430.514618 422.176147,430.593811 
z"/>
<path fill="#0B68AC" opacity="1.000000" stroke="none" 
	d="
M719.102905,446.623047 
	C718.791809,446.408813 718.429932,445.846832 718.074768,444.923218 
	C718.405090,445.132812 718.728638,445.704071 719.102905,446.623047 
z"/>
<path fill="#0B68AC" opacity="1.000000" stroke="none" 
	d="
M507.526672,522.914124 
	C507.808350,522.998169 508.178497,523.305359 508.325684,523.792847 
	C507.952362,523.687500 507.789886,523.408813 507.526672,522.914124 
z"/>
<path fill="#0B68AC" opacity="1.000000" stroke="none" 
	d="
M488.054993,527.666138 
	C487.739990,527.488525 487.404327,526.997314 487.081421,526.184875 
	C487.407562,526.359985 487.720978,526.856262 488.054993,527.666138 
z"/>
<path fill="#0B68AC" opacity="1.000000" stroke="none" 
	d="
M490.010315,531.684082 
	C489.703705,531.507568 489.381134,531.034302 489.047180,530.254150 
	C489.355286,530.427246 489.674805,530.907288 490.010315,531.684082 
z"/>
<path fill="#0B68AC" opacity="1.000000" stroke="none" 
	d="
M427.542389,323.944733 
	C427.675720,324.416016 427.529205,325.038055 427.071594,325.789368 
	C426.927826,325.310913 427.095215,324.703217 427.542389,323.944733 
z"/>
<path fill="#0B68AC" opacity="1.000000" stroke="none" 
	d="
M404.025238,591.361755 
	C404.279572,591.278931 404.625427,591.428284 404.968048,591.824219 
	C404.609314,592.041260 404.326630,591.882324 404.025238,591.361755 
z"/>
<path fill="#0B68AC" opacity="1.000000" stroke="none" 
	d="
M495.122070,541.640259 
	C494.796234,541.481140 494.432129,541.014221 494.065826,540.227417 
	C494.403687,540.382568 494.743713,540.857544 495.122070,541.640259 
z"/>
<path fill="#0B68AC" opacity="1.000000" stroke="none" 
	d="
M498.146545,546.643555 
	C497.836884,546.486877 497.452148,546.035828 497.055939,545.263000 
	C497.386780,545.410522 497.729126,545.879822 498.146545,546.643555 
z"/>
<path fill="#0B68AC" opacity="1.000000" stroke="none" 
	d="
M719.381714,586.004028 
	C719.254089,585.539856 719.416260,584.937683 719.864746,584.183472 
	C719.991211,584.643005 719.831299,585.254517 719.381714,586.004028 
z"/>
<path fill="#0B68AC" opacity="1.000000" stroke="none" 
	d="
M717.421448,590.032166 
	C717.285217,589.571777 717.429077,588.956665 717.864502,588.187622 
	C718.004517,588.648254 717.853027,589.262878 717.421448,590.032166 
z"/>
<path fill="#0B68AC" opacity="1.000000" stroke="none" 
	d="
M718.379395,587.999756 
	C718.255676,587.532349 718.425476,586.933899 718.884705,586.188660 
	C719.007019,586.650818 718.839966,587.259705 718.379395,587.999756 
z"/>
<path fill="#0B68AC" opacity="1.000000" stroke="none" 
	d="
M515.362793,386.118347 
	C515.277039,385.898987 515.452148,385.577606 515.890259,385.153931 
	C515.976746,385.373199 515.800171,385.694763 515.362793,386.118347 
z"/>
<path fill="#0B68AC" opacity="1.000000" stroke="none" 
	d="
M497.694336,415.979248 
	C497.772736,416.207489 497.583130,416.493347 497.142517,416.862915 
	C497.069794,416.643341 497.248077,416.340088 497.694336,415.979248 
z"/>
<path fill="#0B68AC" opacity="1.000000" stroke="none" 
	d="
M433.004242,667.699646 
	C432.778717,667.765808 432.501892,667.562927 432.150879,667.105469 
	C432.368774,667.044128 432.660858,667.237366 433.004242,667.699646 
z"/>
<path fill="#0B68AC" opacity="1.000000" stroke="none" 
	d="
M595.246704,319.646118 
	C595.025635,319.730469 594.672729,319.539856 594.233398,319.052002 
	C594.469666,318.960236 594.792236,319.165680 595.246704,319.646118 
z"/>
<path fill="#0B68AC" opacity="1.000000" stroke="none" 
	d="
M512.746155,389.342773 
	C512.619507,389.074646 512.719177,388.719360 513.134277,388.399048 
	C513.410156,388.777466 513.251038,389.051331 512.746155,389.342773 
z"/>
<path fill="#0B68AC" opacity="1.000000" stroke="none" 
	d="
M435.140381,670.652710 
	C434.924591,670.724915 434.603943,670.529114 434.208405,670.051208 
	C434.434204,669.974243 434.734863,670.179443 435.140381,670.652710 
z"/>
<path fill="#0B68AC" opacity="1.000000" stroke="none" 
	d="
M534.328918,674.085205 
	C534.293762,673.865417 534.529419,673.578247 535.057739,673.281738 
	C535.100098,673.520813 534.849915,673.769348 534.328918,674.085205 
z"/>
<path fill="#0B68AC" opacity="1.000000" stroke="none" 
	d="
M477.241760,678.986084 
	C477.297760,678.846802 477.569031,678.802551 477.882812,678.942993 
	C477.925354,679.127686 477.457001,679.081177 477.241760,678.986084 
z"/>
<path fill="#0B68AC" opacity="1.000000" stroke="none" 
	d="
M516.306152,385.049438 
	C516.245178,384.850464 516.438538,384.549896 516.886780,384.148193 
	C516.947937,384.347321 516.754211,384.647552 516.306152,385.049438 
z"/>
<path fill="#0B68AC" opacity="1.000000" stroke="none" 
	d="
M517.305908,384.042847 
	C517.245544,383.842194 517.440857,383.543945 517.891663,383.146576 
	C517.951965,383.346710 517.756714,383.645966 517.305908,384.042847 
z"/>
<path fill="#0B68AC" opacity="1.000000" stroke="none" 
	d="
M518.310791,383.052490 
	C518.250732,382.846161 518.449890,382.545471 518.912354,382.155212 
	C518.973755,382.363098 518.771912,382.660583 518.310791,383.052490 
z"/>
<path fill="#0B68AC" opacity="1.000000" stroke="none" 
	d="
M621.576538,389.859924 
	C621.699707,390.099487 621.555725,390.424713 621.158630,390.857971 
	C621.040100,390.625824 621.174683,390.285706 621.576538,389.859924 
z"/>
<path fill="#0B68AC" opacity="1.000000" stroke="none" 
	d="
M649.008301,390.696838 
	C648.787781,390.777100 648.502747,390.596405 648.129028,390.171875 
	C648.341553,390.097321 648.642578,390.266632 649.008301,390.696838 
z"/>
<path fill="#0B68AC" opacity="1.000000" stroke="none" 
	d="
M649.990906,391.695923 
	C649.767883,391.774628 649.490112,391.592407 649.127319,391.168640 
	C649.340210,391.096405 649.638245,391.265686 649.990906,391.695923 
z"/>
<path fill="#0B68AC" opacity="1.000000" stroke="none" 
	d="
M652.078735,394.673859 
	C651.856995,394.741547 651.558594,394.536285 651.191895,394.057953 
	C651.416382,393.990234 651.709290,394.195557 652.078735,394.673859 
z"/>
<path fill="#0B68AC" opacity="1.000000" stroke="none" 
	d="
M548.421143,661.179443 
	C548.338745,660.945007 548.531860,660.604309 549.012817,660.166138 
	C549.099243,660.403503 548.897888,660.738342 548.421143,661.179443 
z"/>
<path fill="#0B68AC" opacity="1.000000" stroke="none" 
	d="
M474.709106,414.207825 
	C474.550507,413.984436 474.621094,413.637909 474.958740,413.184631 
	C475.129944,413.413452 475.034119,413.749054 474.709106,414.207825 
z"/>
<path fill="#0B68AC" opacity="1.000000" stroke="none" 
	d="
M432.634338,316.888245 
	C432.722809,317.116028 432.544739,317.432343 432.102264,317.842896 
	C432.014526,317.617004 432.191193,317.296875 432.634338,316.888245 
z"/>
<path fill="#3186BB" opacity="1.000000" stroke="none" 
	d="
M601.231079,429.397614 
	C601.114685,429.234772 601.508301,429.104828 601.705933,429.042480 
	C601.955200,429.144440 602.006836,429.308746 602.041016,429.730774 
	C601.755249,429.913605 601.529907,429.770905 601.231079,429.397614 
z"/>
<path fill="#0B68AC" opacity="1.000000" stroke="none" 
	d="
M589.069214,313.656982 
	C588.838745,313.754333 588.535522,313.585724 588.132812,313.169800 
	C588.354370,313.078644 588.675354,313.234833 589.069214,313.656982 
z"/>
<path fill="#0B68AC" opacity="1.000000" stroke="none" 
	d="
M438.672729,311.918182 
	C438.723846,312.156769 438.497131,312.443085 437.984009,312.744080 
	C437.930023,312.494446 438.162476,312.230194 438.672729,311.918182 
z"/>
<path fill="#0B68AC" opacity="1.000000" stroke="none" 
	d="
M431.674164,317.934509 
	C431.757263,318.147736 431.581573,318.453796 431.156586,318.865234 
	C431.076630,318.656219 431.246002,318.341766 431.674164,317.934509 
z"/>
<path fill="#0B68AC" opacity="1.000000" stroke="none" 
	d="
M492.024353,535.702942 
	C491.787140,535.735596 491.525970,535.491943 491.270935,534.966675 
	C491.518188,534.932251 491.759308,535.179382 492.024353,535.702942 
z"/>
<path fill="#0B68AC" opacity="1.000000" stroke="none" 
	d="
M454.660461,606.930969 
	C454.743164,607.166687 454.551361,607.460876 454.097717,607.828247 
	C454.019226,607.597412 454.202606,607.293457 454.660461,606.930969 
z"/>
<path fill="#0B68AC" opacity="1.000000" stroke="none" 
	d="
M384.356628,541.049561 
	C384.291412,540.836731 384.514771,540.490601 385.015472,539.981750 
	C385.076935,540.184753 384.861084,540.550476 384.356628,541.049561 
z"/>
<path fill="#0B68AC" opacity="1.000000" stroke="none" 
	d="
M381.035065,596.690918 
	C380.807739,596.739380 380.531067,596.512024 380.219543,596.007446 
	C380.451691,595.958496 380.718719,596.186768 381.035065,596.690918 
z"/>
<path fill="#0B68AC" opacity="1.000000" stroke="none" 
	d="
M383.082092,599.663696 
	C382.845703,599.718018 382.558685,599.495972 382.253601,598.989990 
	C382.500793,598.933105 382.766113,599.160217 383.082092,599.663696 
z"/>
<path fill="#004A97" opacity="1.000000" stroke="none" 
	d="
M684.595032,603.567322 
	C657.776794,603.749817 630.652588,603.673462 603.217896,603.306580 
	C628.380981,603.022339 653.854614,603.023621 679.328186,603.046692 
	C680.981873,603.048218 682.635437,603.217285 684.595032,603.567322 
z"/>
</svg>